<svg xmlns="http://www.w3.org/2000/svg" viewBox="0 0 640 400" width="640" height="400" role="img"><title>A learner compares an early worksheet with a recent achievement and notices their growth.</title><rect width="640" height="400" rx="22" fill="#fbf8f1"/><rect x="438" y="35" width="135" height="135" rx="5" fill="#dfeeed" stroke="#9ebeb7" stroke-width="3"/><path d="M505 37v131M441 103h129" stroke="#fbf8f1" stroke-width="8"/><path d="M0 307h640v93H0z" fill="#ece8da"/><path d="M0 307h640" stroke="#d6d3c5" stroke-width="2"/><rect x="42" y="33" width="228" height="115" rx="5" fill="#739d8f" stroke="#496f60" stroke-width="5"/><path d="M64 127h178" stroke="#dce7cf" stroke-width="4"/><rect x="26" y="16" width="588" height="36" rx="18" fill="#fffdf7" fill-opacity=".96"/><text x="44" y="39" fill="#244a43" font-family="Arial,sans-serif" font-size="17" font-weight="600" text-anchor="start">Noticing personal progress</text><path d="M22 115Q155 53 286 112v199Q152 344 22 304Z" fill="#ffffff" fill-opacity=".78"/><path d="M354 112Q480 54 618 115v189Q486 344 354 311Z" fill="#edf3e6" fill-opacity=".94"/><ellipse cx="153" cy="314" rx="89" ry="9" fill="#718878" fill-opacity=".12"/><ellipse cx="488" cy="314" rx="89" ry="9" fill="#718878" fill-opacity=".12"/><svg x="46" y="109" width="218" height="200" viewBox="65.108290625 47.8346625 717.5199375 758.710896875" preserveAspectRatio="xMidYMid meet"><path d="M638.65 99.28c-3.9 6.44.479 17.5 10.359 25.41 9.13 7.36 19.931 9.54 25.78 5.63l-32.84 40.83c-5.851 3.92-16.65 1.73-25.8-5.62-10.25-8.24-14.591-19.89-9.801-26.19l32.24-40.09.062.03z" fill="#a3d9ff"/><path d="M674.79 130.32c-5.85 3.91-16.65 1.73-25.78-5.63-9.88-7.91-14.26-18.97-10.359-25.41.189-.34.409-.66.659-.97 5.04-6.24 17.521-4.55 27.881 3.79 10.35 8.33 14.68 20.13 9.64 26.38a8.735 8.735 0 0 1-2.041 1.84zM553.02 205.63l53.33-66.29c-4.79 6.3-.449 17.95 9.801 26.19 9.149 7.35 19.949 9.54 25.8 5.62l-65.55 81.5-70.62 87.8c-1.2 1.47-2.8 2.51-4.681 3.13h-.01c-6.02 2-14.89-.33-22.75-6.66-7-5.62-11.24-12.85-11.71-18.87-.22-2.86.41-5.44 2.01-7.46l-.029-.02 84.409-104.94z" fill="#0b00ea"/><path d="M478.34 336.92c7.86 6.33 16.73 8.66 22.75 6.66-1.47.95-44.43 28.47-47.96 31.11-9.04 6.86-9.89-8.53-9.89-8.53l23.13-48.09.26-.02c.47 6.02 4.71 13.25 11.71 18.87z" fill="#c8c8c8"/><path d="M239.12 365.62c.09 2.44-.58 4.75-2 6.93-1.42 2.19-3.42 3.96-6 5.32-2.61 1.37-4.9 1.83-6.87 1.36-1.98-.47-3.43-1.59-4.37-3.37-.61-1.16-.86-2.37-.73-3.65.12-1.27.62-2.46 1.5-3.55.88-1.09 2.59-2.56 5.14-4.41 4.49-3.25 7.7-6.01 9.61-8.28l1.3 2.43c1.54 2.93 2.35 5.34 2.42 7.22zM285.42 446.04c2.64 5.02 3.58 9.36 2.8 13.01-.78 3.65-2.63 6.24-5.53 7.771-2.83 1.489-5.77 1.66-8.8.5-.8-.301-1.6-.7-2.41-1.181-2.39-1.42-4.83-4.5-7.32-9.22-2.53-4.8-3.4-9.02-2.62-12.67.1-.46.21-.9.34-1.32.92-2.96 2.64-5.109 5.19-6.449 2.88-1.521 5.98-1.591 9.3-.211 3.32 1.37 6.34 4.63 9.05 9.77zM380.14 629.76c2.58 4.9 3.48 9.07 2.7 12.53-.1.43-.21.85-.34 1.25-.92 2.82-2.64 4.89-5.2 6.24-2.88 1.52-6.05 1.59-9.49.22-3.43-1.38-6.48-4.59-9.14-9.63-2.75-5.21-3.76-9.55-3.05-13.021.71-3.47 2.54-5.989 5.5-7.55 1.64-.859 3.33-1.28 5.08-1.27 1.49.02 3.02.359 4.58 1.01 3.4 1.431 6.52 4.841 9.36 10.221z" fill="#f6cc4b"/><path d="M505.78 340.45l70.62-87.8.859.69 178.65 315.49L375.11 779.56 93.66 256.77 479.52 75l73.5 130.63-84.41 104.94.029.02c-1.6 2.02-2.229 4.6-2.01 7.46l-.26.02-23.13 48.09-10.971 24.33 20.86-15.8c3.53-2.64 46.49-30.16 47.96-31.11h.01c1.882-.62 3.482-1.66 4.682-3.13zm-109.5 305.19l-28.65-54.35-6.69 3.53 10.29 19.51c-1.51-.74-3.12-1.22-4.83-1.42-.57-.07-1.15-.11-1.74-.11-2.38-.03-4.75.58-7.11 1.82-3.23 1.71-5.7 4.1-7.42 7.18-1.71 3.08-2.38 6.561-1.99 10.45.38 3.89 1.6 7.8 3.67 11.73 2.13 4.02 4.73 7.21 7.8 9.55 3.08 2.33 6.39 3.68 9.93 4.02s6.88-.31 10.02-1.96c4.84-2.55 7.48-6.43 7.92-11.64l2.61 4.95 6.19-3.26zm-54.46-91.47c1.6-4.11 1.57-8.61-.09-13.5l-7.05 2.58c1.3 3.59 1.49 6.65.59 9.18-.9 2.53-2.65 4.49-5.26 5.86-3.25 1.71-6.52 1.9-9.8.57-3.28-1.33-6.32-4.65-9.11-9.94-2.75-5.21-3.71-9.58-2.88-13.1.83-3.511 2.92-6.16 6.28-7.931 2.22-1.17 4.47-1.5 6.74-.989 2.27.5 4.41 1.92 6.42 4.229l5.94-4.399c-2.86-3.57-6.22-5.721-10.07-6.45-3.85-.73-7.91.029-12.18 2.279-3.39 1.78-6.09 4.23-8.13 7.341-2.04 3.109-2.92 6.63-2.64 10.56.27 3.92 1.53 8.01 3.77 12.26 3.46 6.57 7.75 10.761 12.88 12.561 5.12 1.8 10.37 1.279 15.75-1.561 4.29-2.26 7.24-5.44 8.84-9.55zm-46.59-94.02c1.39-5.44.31-11.53-3.25-18.271-1.5-2.85-3.3-5.31-5.4-7.38-2.11-2.08-4.32-3.64-6.65-4.67-2.32-1.03-4.82-1.47-7.49-1.311-2.68.171-5.22.891-7.64 2.16-4.37 2.301-7.03 5.96-7.98 10.96l-10.22-19.38-6.69 3.52 28.65 54.35 6.19-3.26-2.6-4.92c4.69 2.479 9.35 2.49 13.99.05 4.66-2.458 7.69-6.408 9.09-11.848zm-47.6-85.4l6.96-3.67c-1.61-1.09-2.99-2.38-4.13-3.89-1.15-1.5-3.35-5.35-6.62-11.55l-4.68-8.88c-1.56-2.96-2.75-4.95-3.58-5.97-1.36-1.62-2.85-2.77-4.47-3.44-1.62-.68-3.69-.86-6.21-.54-2.53.32-5.47 1.37-8.84 3.14-3.39 1.79-6.13 3.83-8.22 6.11-2.09 2.29-3.36 4.64-3.82 7.08-.46 2.43-.25 5.2.63 8.3l6.99-2.55c-.75-3.16-.66-5.69.27-7.58.92-1.89 2.96-3.66 6.11-5.32 3.38-1.78 6.32-2.37 8.83-1.77 1.85.44 3.49 2.02 4.92 4.73.13.25.42.84.88 1.76-2.09 2.24-5.67 5.1-10.74 8.6-2.48 1.72-4.29 3.1-5.42 4.13-1.53 1.44-2.75 3.02-3.67 4.73-.92 1.72-1.39 3.6-1.43 5.66-.05 2.06.44 4.05 1.46 5.98 1.73 3.29 4.32 5.37 7.77 6.26 3.44.88 7.33.18 11.67-2.11 2.63-1.38 4.87-3.11 6.71-5.19 1.83-2.07 3.43-4.81 4.79-8.22 1.17 1.76 2.45 3.16 3.84 4.2z" fill="#f6cc4b"/><path d="M367.63 591.29l28.65 54.35-6.19 3.261-2.61-4.95-4.98-.41c.13-.4.24-.82.34-1.25.78-3.46-.12-7.63-2.7-12.53-2.84-5.38-5.96-8.79-9.36-10.22-1.56-.65-3.09-.99-4.58-1.01l.2-5.62c1.71.2 3.32.68 4.83 1.42l-10.29-19.51 6.69-3.531z" fill="#231f20"/><path d="M366.2 618.53c-1.75-.011-3.44.41-5.08 1.27-2.96 1.561-4.79 4.08-5.5 7.55-.71 3.471.3 7.811 3.05 13.021 2.66 5.04 5.71 8.25 9.14 9.63 3.44 1.37 6.61 1.3 9.49-.22 2.56-1.351 4.28-3.42 5.2-6.24l4.98.41c-.44 5.21-3.08 9.09-7.92 11.64-3.14 1.65-6.48 2.3-10.02 1.96s-6.85-1.689-9.93-4.02c-3.07-2.34-5.67-5.53-7.8-9.55-2.07-3.931-3.29-7.841-3.67-11.73-.39-3.89.28-7.37 1.99-10.45 1.72-3.08 4.19-5.47 7.42-7.18 2.36-1.24 4.73-1.851 7.11-1.82.59 0 1.17.04 1.74.11l-.2 5.619zM341.73 540.67c1.66 4.89 1.69 9.39.09 13.5-1.6 4.11-4.55 7.29-8.84 9.55-5.38 2.84-10.63 3.36-15.75 1.561-5.13-1.8-9.42-5.99-12.88-12.561-2.24-4.25-3.5-8.34-3.77-12.26-.28-3.93.6-7.45 2.64-10.56 2.04-3.11 4.74-5.561 8.13-7.341 4.27-2.25 8.33-3.01 12.18-2.279 3.85.729 7.21 2.88 10.07 6.45l-5.94 4.399c-2.01-2.31-4.15-3.729-6.42-4.229-2.27-.511-4.52-.181-6.74.989-3.36 1.771-5.45 4.42-6.28 7.931-.83 3.52.13 7.89 2.88 13.1 2.79 5.29 5.83 8.61 9.11 9.94 3.28 1.33 6.55 1.14 9.8-.57 2.61-1.37 4.36-3.33 5.26-5.86.9-2.529.71-5.59-.59-9.18l7.05-2.58zM272.15 471.95l2.6 4.92-6.19 3.26-28.65-54.35 6.69-3.52 10.22 19.38 5.06 1.29c-.13.42-.24.86-.34 1.32-.78 3.65.09 7.87 2.62 12.67 2.49 4.72 4.93 7.8 7.32 9.22.81.48 1.61.88 2.41 1.181l-1.74 4.629z" fill="#231f20"/><path d="M286.14 472c-4.64 2.44-9.3 2.43-13.99-.05l1.74-4.63c3.03 1.16 5.97.989 8.8-.5 2.9-1.53 4.75-4.12 5.53-7.771.78-3.649-.16-7.99-2.8-13.01-2.71-5.14-5.73-8.4-9.05-9.771-3.32-1.38-6.42-1.31-9.3.211-2.55 1.34-4.27 3.489-5.19 6.449l-5.06-1.29c.95-5 3.61-8.659 7.98-10.96 2.42-1.27 4.96-1.989 7.64-2.16 2.67-.159 5.17.28 7.49 1.311 2.33 1.03 4.54 2.59 6.65 4.67 2.1 2.07 3.9 4.53 5.4 7.38 3.56 6.74 4.64 12.83 3.25 18.271-1.4 5.44-4.43 9.39-9.09 11.85zM237.12 372.55c1.42-2.18 2.09-4.49 2-6.93-.07-1.88-.88-4.29-2.42-7.22l-1.3-2.43c-1.91 2.27-5.12 5.03-9.61 8.28-2.55 1.85-4.26 3.32-5.14 4.41-.88 1.09-1.38 2.28-1.5 3.55-.13 1.28.12 2.49.73 3.65.94 1.78 2.39 2.9 4.37 3.37 1.97.47 4.26.01 6.87-1.36 2.58-1.36 4.58-3.13 6-5.32zm6.67-2c-1.36 3.41-2.96 6.15-4.79 8.22-1.84 2.08-4.08 3.81-6.71 5.19-4.34 2.29-8.23 2.99-11.67 2.11-3.45-.89-6.04-2.97-7.77-6.26-1.02-1.93-1.51-3.92-1.46-5.98.04-2.06.51-3.94 1.43-5.66.92-1.71 2.14-3.29 3.67-4.73 1.13-1.03 2.94-2.41 5.42-4.13 5.07-3.5 8.65-6.36 10.74-8.6-.46-.92-.75-1.51-.88-1.76-1.43-2.71-3.07-4.29-4.92-4.73-2.51-.6-5.45-.01-8.83 1.77-3.15 1.66-5.19 3.43-6.11 5.32-.93 1.89-1.02 4.42-.27 7.58l-6.99 2.55c-.88-3.1-1.09-5.87-.63-8.3.46-2.44 1.73-4.79 3.82-7.08 2.09-2.28 4.83-4.32 8.22-6.11 3.37-1.77 6.31-2.82 8.84-3.14 2.52-.32 4.59-.14 6.21.54 1.62.67 3.11 1.82 4.47 3.44.83 1.02 2.02 3.01 3.58 5.97l4.68 8.88c3.27 6.2 5.47 10.05 6.62 11.55 1.14 1.51 2.52 2.8 4.13 3.89l-6.96 3.67c-1.39-1.04-2.67-2.44-3.84-4.2z" fill="#231f20"/><g fill="none" stroke="#231f20" stroke-width="21"><path d="M638.65 99.28c-3.9 6.44.479 17.5 10.359 25.41 9.13 7.36 19.931 9.54 25.78 5.63a8.71 8.71 0 0 0 2.04-1.84c5.04-6.25.71-18.05-9.64-26.38-10.36-8.34-22.841-10.03-27.881-3.79-.248.31-.468.63-.658.97zM606.49 139.14c-.05.07-.101.13-.141.2-4.79 6.3-.449 17.95 9.801 26.19 9.149 7.35 19.949 9.54 25.8 5.62.77-.51 1.46-1.12 2.04-1.85M506.14 340.77c.011-.04.03-.04.04-.06M501.1 343.58c1.881-.62 3.48-1.66 4.681-3.13M468.68 310.54c-.01.02-.029.03-.04.05-1.6 2.02-2.229 4.6-2.01 7.46.47 6.02 4.71 13.25 11.71 18.87 7.86 6.33 16.73 8.66 22.75 6.66"/><path d="M505.78 340.45l70.62-87.8 65.55-81.5 32.84-40.83.8-.99M638.59 99.25l-32.24 40.09-53.33 66.29-84.41 104.94M466.37 318.07l-23.13 48.09s.85 15.39 9.89 8.53c3.53-2.64 46.49-30.16 47.96-31.11h.01c.021-.01.03-.02.03-.02"/><path stroke-linecap="round" stroke-linejoin="round" d="M443.24 366.16l-10.97 24.33 20.86-15.8"/><path d="M553.54 206.56l-.52-.93L479.52 75 93.66 256.77l281.45 522.79 380.8-210.73-178.65-315.49M276.68 346.12l229.19-126.58M325.2 433.69l118.04-67.53M373.04 523.02l229.19-126.59M422.37 617.97l229.19-126.59"/></g><path fill="none" d="M0 0h850.394v850.394H0z"/></svg><svg x="379" y="109" width="216" height="200" viewBox="148.81895 70.423253125 546.1123968750001 716.191196875" preserveAspectRatio="xMidYMid meet"><path d="M653.21 112.83v633.34H192.3V112.83h460.91zm-53.74 496.38c7.771-7.68 12.55-18.07 12.55-29.5 0-23.67-20.47-42.85-45.71-42.85-25.25 0-45.71 19.18-45.71 42.85 0 11.86 5.141 22.59 13.44 30.35v102.5l32.27-38.569 33.57 33.569v-97.95l-.41-.4z" fill="#a3d9ff"/><path d="M675.59 91.28v676.44H169.91V91.28h505.68zm-22.38 654.89V112.83H192.3v633.34h460.91z" fill="#0b00ea"/><path d="M599.88 609.61v97.949l-33.57-33.569-32.27 38.569V610.07c8.27 7.72 19.67 12.5 32.27 12.5 13.051 0 24.83-5.13 33.16-13.36l.41.4z" fill="#fff400"/><path d="M612.02 579.71c0 11.43-4.779 21.82-12.55 29.5-8.33 8.23-20.109 13.36-33.16 13.36-12.6 0-24-4.78-32.27-12.5v-.011c-8.3-7.76-13.44-18.489-13.44-30.35 0-23.67 20.46-42.85 45.71-42.85 25.24.001 45.71 19.181 45.71 42.851z" fill="#fff400"/><g fill="none" stroke="#231f20"><path stroke-width="14" d="M192.3 112.83h460.91v633.34H192.3z"/><path stroke-width="14" d="M169.91 91.28h505.68v676.44H169.91z"/><path d="M534.04 610.06c-8.3-7.76-13.44-18.489-13.44-30.35 0-23.67 20.46-42.85 45.71-42.85 25.24 0 45.71 19.18 45.71 42.85 0 11.43-4.779 21.82-12.55 29.5-8.33 8.23-20.109 13.36-33.16 13.36-12.6 0-24-4.78-32.27-12.5" stroke-width="21"/><path stroke-width="21" d="M534.04 610.06v102.5l32.27-38.57 33.57 33.57v-97.95M237.89 269.51h371.38M237.89 310.13h371.38M237.89 352.13h371.38M237.89 396.06h371.38M237.89 436.68h371.38M237.89 478.69h371.38M299.23 200.7h246.21M237.89 565.45h159.99"/></g><path fill="none" d="M0 0h850.394v850.394H0z"/></svg><circle cx="320" cy="109" r="46" fill="#fff7dd" stroke="#dfd0a8" stroke-width="2"/><svg x="285" y="74" width="70" height="70" viewBox="119.58665625 39.86221875 609.891946875 787.9431906249999" preserveAspectRatio="xMidYMid meet"><path d="M710.77 758.62c-24.06 17.08-43.63 28.93-67.09 35.91-35.97 10.71-75.62 17.89-113.22 18.55-86.33 1.53-177.2 9.61-257.31-27.43 21.31-21.311 24.95-17.851 30.55-46.21 35.38 21.609 100.5 24.67 145.24-8.21 53.27-39.16 92.59-74.04 115.06-111.141.55 52.55 40.64 81.63 40.64 81.63 27.09 31.461 79.19 27.411 106.13 56.901zM646.34 385.53c5.93 9.22 2.5 20.27.93 39.55-3.359 41.229-19.46 84.76-30.029 95.34-10.92 10.92-18.46 8.59-27.46-.41.93-17.41.939-38.25.3-68.14-.17-7.94-.38-16.521-.63-25.851-.01-.069-.01-.129-.01-.2-.04-1.32-.07-2.66-.11-4.02.54-24.51 20.79-60.59 44.49-46.99 6.199 3.561 10.129 6.991 12.519 10.721z" fill="#ffeec8" class="aac-skin-fill"/><path d="M165.65 444.75c-18.09-6.6-21.19-22.42-21.19-22.42-4.33-60.18-7.24-182.65 39.29-244.08C278.25 53.47 364.17 50.49 499.24 75.24 601.64 94 668.4 198.62 646.34 385.53c-2.39-3.73-6.32-7.16-12.52-10.72-23.7-13.6-43.95 22.48-44.49 46.99-.03 1.38.01 2.73.11 4.02 0 .07 0 .13.01.2.25 9.33.46 17.91.63 25.851l-2.04.05c-18.31-27.19-4.7-114.73-32.54-142.57-27.84-27.84-47.72-103.4-47.72-103.4-.48-.3-.98-.56-1.49-.79-11.771-5.23-31.521 8.4-42.25 14.44-16.71 9.39-25.45 6-64.59 21.15-50.27 19.44-92.72-38.18-195.12 17.32L181.1 329.1c-12 49.41 2.26 71.71 2.26 94.16 0 8-.06 16.12-.09 24.32-7.06 0-12.86-1.1-17.62-2.83z" fill="#9e5b16" class="aac-hair-fill"/><path d="M317.47 541.6c-3.96-2-7.17-4.52-9.03-7.479-6.3-10.03-3.14-19.28.81-28.99-6.8 3.859-17.28 26.719 8.22 36.469zM215.81 415.73l.02.01c10.19 9.43 21.07 17.91 43.17 18.56 21.76.63 33.61-7.399 36.45-8.1 7.42-1.84 5.55 5.64 9.23 3.35 4.33-2.67 1.05-5.71-1.43-10.1-8.7-15.4-25.17-29.47-43.13-29.47-23.63 0-32.11 10.84-44.31 25.74v.01zm87.89 323.71c-4.82-2.94-9.09-6.23-12.68-9.82-22.3-22.3-41.2-59.73-65.05-101.69-9.17-16.13-32.98-51.689-39.51-104.84-1.04-8.49-1.76-17.02-2.24-25.55-.95-16.75-1.01-33.51-.95-49.96.03-8.2.09-16.32.09-24.32 0-22.45-14.26-44.75-2.26-94.16l23.23-71.03c102.4-55.5 144.85 2.12 195.12-17.32 39.14-15.15 47.88-11.76 64.59-21.15 10.729-6.04 30.479-19.67 42.25-14.44.51.23 1.01.49 1.49.79 0 0 19.88 75.56 47.72 103.4 27.84 27.84 14.23 115.38 32.54 142.57l2.04-.05c.64 29.89.63 50.729-.3 68.14-1 18.92-3.09 33.78-6.62 51.8-3.28 16.801-9.74 32.73-19.16 48.28-22.47 37.101-61.79 71.98-115.06 111.141-44.74 32.879-109.86 29.819-145.24 8.209zm142.2-304.58c13.569 0 32.59-7.19 42.76-16.62-13.521-16.3-20.9-30.53-42.65-30.05-18 .4-36.67 15.07-45.37 30.47-2.45 4.39-5.74 7.42-1.42 10.109 3.67 2.261 3.68-3.81 7.64-1.97 2.65 1.251 22.76 8.061 39.04 8.061zm-65.74 226.61c28.96-2.489 49.99-45.79 71.53-48.22-26.5-7.75-50.44-25.58-68.791-27.54-13.85-1.49-24.53 7.83-37.1 2.21-24.3-10.86-48.3 18.08-72.81 24.45 26.34 3.07 43.83 43.78 58.6 47.33 17.081 4.12 31.241 3.25 48.571 1.77z" fill="#ffeec8" class="aac-skin-fill"/><path d="M488.66 418.24c-10.17 9.43-29.19 16.62-42.76 16.62-16.28 0-36.391-6.811-39.041-8.061-3.96-1.84-3.97 4.23-7.64 1.97-4.32-2.689-1.03-5.72 1.42-10.109 8.7-15.4 27.37-30.07 45.37-30.47 21.751-.48 29.131 13.75 42.651 30.05zm-44.34 11.2c14.18 1.5 27.859-13.911 14.8-31.07-6.24-8.2-28.66-5.77-32.66 8.71-3.51 12.71 6.96 21.2 17.86 22.36z" fill="#fff"/><path d="M459.12 398.37c13.06 17.16-.62 32.57-14.8 31.07-10.9-1.16-21.37-9.65-17.86-22.36 4-14.48 26.42-16.91 32.66-8.71zm.1 12.99c0-6.83-6.3-12.37-14.069-12.37-7.79 0-14.091 5.54-14.091 12.37 0 6.85 6.301 12.4 14.091 12.4 7.769 0 14.069-5.55 14.069-12.4z" fill="#9e5b16"/><path d="M445.15 398.99c7.77 0 14.069 5.54 14.069 12.37 0 6.85-6.3 12.4-14.069 12.4-7.79 0-14.091-5.55-14.091-12.4.001-6.83 6.301-12.37 14.091-12.37zm5.85 12.63c0-3.39-2.52-6.14-5.63-6.14-3.13 0-5.64 2.75-5.64 6.14 0 3.4 2.51 6.15 5.64 6.15 3.11 0 5.63-2.75 5.63-6.15z"/><path d="M445.37 405.48c3.11 0 5.63 2.75 5.63 6.14 0 3.4-2.52 6.15-5.63 6.15-3.13 0-5.64-2.75-5.64-6.15 0-3.39 2.51-6.14 5.64-6.14z" fill="#fff"/><path d="M451.69 613.25c-21.54 2.43-42.57 45.73-71.53 48.22-17.33 1.48-31.49 2.351-48.57-1.77-14.77-3.55-32.26-44.26-58.6-47.33 24.51-6.37 48.51-35.311 72.81-24.45 12.57 5.62 23.25-3.7 37.1-2.21 18.35 1.96 42.29 19.79 68.79 27.54zm-36.72 11.76c4.84-3.33 9.78-6.77 15.669-10.01-11.78-3.09-20.75-5.22-27.97-6.67-22.02-4.42-27.7-2.53-46.63-2.53-19.05 0-35.16 1.7-46.4 3.36-10.86 1.63-17.16 3.21-17.16 3.21 7.74 2.83 12.57 8.149 17.96 13.59 8.48 8.59 18.32 17.51 43.06 17.51 33.971 0 47.311-8.74 61.471-18.46z" fill="#fad7d9"/><path d="M430.64 615c-5.89 3.24-10.83 6.68-15.669 10.01l-.36-.529c-50.49 13.119-104.16 1.47-104.16 1.47l-.01.01c-5.39-5.44-10.22-10.76-17.96-13.59 0 0 6.3-1.58 17.16-3.21v.01s41.45 16.82 92.93-.32l.1-.52c7.219 1.449 16.189 3.579 27.969 6.669z"/><path d="M414.61 624.48l.36.529c-14.16 9.721-27.5 18.46-61.47 18.46-24.74 0-34.58-8.92-43.06-17.51l.01-.01c0 .001 53.67 11.651 104.16-1.469z" fill="#fff"/><path d="M309.64 609.16c11.24-1.66 27.35-3.36 46.4-3.36 18.93 0 24.61-1.89 46.63 2.53l-.1.52c-51.48 17.141-92.93.32-92.93.32v-.01z"/><path d="M303.25 419.45c2.48 4.39 5.76 7.43 1.43 10.1-3.68 2.29-1.81-5.19-9.23-3.35-2.84.7-14.69 8.729-36.45 8.1-22.1-.649-32.98-9.13-43.17-18.56l-.02-.01v-.01c12.2-14.9 20.68-25.74 44.31-25.74 17.96 0 34.43 14.07 43.13 29.47zm-48.29 9.88c14.08 2.29 30.23-13.92 17.74-29.2-7.42-9.09-27-6.35-30.79 4.67-4.49 11.01-.62 22.3 13.05 24.53z" fill="#fff"/><path d="M272.7 400.13c12.49 15.28-3.66 31.49-17.74 29.2-13.67-2.23-17.54-13.52-13.05-24.53 3.79-11.02 23.37-13.76 30.79-4.67zm.12 12.02c0-6.82-6.28-12.37-14.06-12.37s-14.07 5.55-14.07 12.37c0 6.85 6.29 12.38 14.07 12.38s14.06-5.53 14.06-12.38z" fill="#9e5b16"/><path d="M258.76 399.78c7.78 0 14.06 5.55 14.06 12.37 0 6.85-6.28 12.38-14.06 12.38s-14.07-5.53-14.07-12.38c0-6.82 6.29-12.37 14.07-12.37zm5.63 11.38c0-3.39-2.52-6.14-5.64-6.14s-5.64 2.75-5.64 6.14c0 3.4 2.52 6.15 5.64 6.15s5.64-2.75 5.64-6.15z"/><path d="M258.75 405.02c3.12 0 5.64 2.75 5.64 6.14 0 3.4-2.52 6.15-5.64 6.15s-5.64-2.75-5.64-6.15c0-3.39 2.52-6.14 5.64-6.14z" fill="#fff"/><g fill="none" stroke="#000"><path d="M213.52 418.5c.78-.94 1.54-1.86 2.29-2.77v-.01c12.2-14.9 20.68-25.74 44.31-25.74 17.96 0 34.43 14.07 43.13 29.47 2.48 4.39 5.76 7.43 1.43 10.1-3.68 2.29-1.81-5.19-9.23-3.35-2.84.7-14.69 8.729-36.45 8.1-22.1-.649-32.98-9.13-43.17-18.56" stroke-width="9" stroke-linecap="square" stroke-miterlimit="10"/><path d="M272.7 400.13c12.49 15.28-3.66 31.49-17.74 29.2-13.67-2.23-17.54-13.52-13.05-24.53 3.79-11.02 23.37-13.76 30.79-4.67z" stroke-width="5.965" stroke-linecap="square" stroke-miterlimit="10"/><path d="M488.66 418.24c-13.521-16.3-20.9-30.53-42.65-30.05-18 .4-36.67 15.07-45.37 30.47-2.45 4.39-5.74 7.42-1.42 10.109 3.67 2.261 3.68-3.81 7.64-1.97 2.65 1.25 22.76 8.061 39.041 8.061 13.569 0 32.589-7.19 42.759-16.62z" stroke-width="9" stroke-linecap="square" stroke-miterlimit="10"/><path d="M459.12 398.37c-6.24-8.2-28.66-5.77-32.66 8.71-3.51 12.71 6.96 21.2 17.86 22.36 14.18 1.5 27.86-13.91 14.8-31.07z" stroke-width="5.965" stroke-linecap="square" stroke-miterlimit="10"/><path d="M646.34 385.53C668.4 198.62 601.64 94 499.24 75.24 364.17 50.49 278.25 53.47 183.75 178.25c-46.53 61.43-43.62 183.9-39.29 244.08 0 0 3.1 15.82 21.19 22.42 4.76 1.73 10.56 2.83 17.62 2.83M589.44 425.82c-.04-1.32-.07-2.66-.11-4.02-.01-.36-.021-.73-.03-1.1" stroke-width="17.895"/><path d="M588.04 451.92c-18.31-27.19-4.7-114.73-32.54-142.57-27.84-27.84-47.72-103.4-47.72-103.4-.48-.3-.98-.56-1.49-.79-11.771-5.23-31.521 8.4-42.25 14.44-16.71 9.39-25.45 6-64.59 21.15-50.27 19.44-92.72-38.18-195.12 17.32L181.1 329.1c-12 49.41 2.26 71.71 2.26 94.16 0 8-.06 16.12-.09 24.32-.06 16.45 0 33.21.95 49.96.48 8.53 1.2 17.06 2.24 25.55 6.53 53.15 30.34 88.71 39.51 104.84 23.85 41.96 42.75 79.391 65.05 101.69 3.59 3.59 7.86 6.88 12.68 9.82 35.38 21.609 100.5 24.67 145.24-8.21 53.27-39.16 92.59-74.04 115.06-111.141 9.42-15.55 15.88-31.479 19.16-48.28 3.53-18.02 5.62-32.88 6.62-51.8.93-17.41.939-38.25.3-68.14-.17-7.94-.38-16.521-.63-25.851M506.29 205.16c8.66-24.79 22.46-49.33 39.27-68.01" stroke-width="17.895"/><path d="M325.66 399.69c2.12 36.3-2.62 44.12-10.46 87.81-1.11 6.19-3.66 11.99-5.95 17.63-3.95 9.71-7.11 18.96-.81 28.99 1.86 2.96 5.07 5.479 9.03 7.479 11.02 5.57 27.8 7.091 37.07 2.811 13.68-6.311 13.76-5.08 32.93-.771 12.43 2.78 21.95-5.77 21.95-16.029 0-9.931-2.14-11.091-7.24-16.181M309.25 505.13c-6.8 3.86-17.28 26.72 8.22 36.47" stroke-width="11.93"/><path d="M390 353.24c25.71-16.81 25.56-20.36 65.99-20.36 22.069 0 29.149 6.22 49.46 21.96M589.45 426.02c-.01-.069-.01-.129-.01-.2a40.121 40.121 0 0 1-.11-4.02c.54-24.51 20.79-60.59 44.49-46.99 6.199 3.56 10.13 6.99 12.52 10.72 5.93 9.22 2.5 20.27.93 39.55-3.359 41.229-19.46 84.76-30.029 95.34-10.92 10.92-18.46 8.59-27.46-.41M165.41 442.44c.08.779.16 1.55.24 2.31 3.55 35.39.42 40.79 18.57 52.79M563.99 618.37c0 .58 0 1.149.01 1.72.55 52.55 40.64 81.63 40.64 81.63 27.091 31.46 79.19 27.41 106.13 56.9M303.7 739.44c-5.6 28.359-9.24 24.899-30.55 46.21M310.56 356.52c-21.08-17.27-22.57-18.13-62.95-18.13-31.37 0-38.3 4.57-58.62 20.32" stroke-width="17.895"/><path d="M310.45 625.95s53.67 11.649 104.16-1.47" stroke-width="6"/><path d="M272.99 612.37c26.34 3.07 43.83 43.78 58.6 47.33 17.08 4.12 31.24 3.25 48.57 1.77 28.96-2.489 49.99-45.79 71.53-48.22-26.5-7.75-50.44-25.58-68.791-27.54-13.85-1.49-24.53 7.83-37.1 2.21C321.5 577.06 297.5 606 272.99 612.37z" stroke-width="11.381"/><path d="M309.64 609.16c11.24-1.66 27.35-3.36 46.4-3.36 18.93 0 24.61-1.89 46.63 2.53 7.22 1.45 16.19 3.58 27.97 6.67-5.89 3.24-10.83 6.68-15.669 10.01-14.16 9.721-27.5 18.46-61.47 18.46-24.74 0-34.58-8.92-43.06-17.51-5.39-5.44-10.22-10.76-17.96-13.59-.001 0 6.299-1.58 17.159-3.21z" stroke-width="11.381"/><path d="M309.64 609.17s41.45 16.82 92.93-.32" stroke-width="6"/></g><path fill="none" d="M0 0h850.394v850.394H0z"/></svg><text x="156" y="352" fill="#244a43" font-family="Arial,sans-serif" font-size="15" font-weight="600" text-anchor="middle">Where I began</text><text x="486" y="352" fill="#244a43" font-family="Arial,sans-serif" font-size="15" font-weight="600" text-anchor="middle">What I can do</text><text x="320" y="181" fill="#244a43" font-family="Arial,sans-serif" font-size="15" font-weight="600" text-anchor="middle">More progress</text></svg>