<svg xmlns="http://www.w3.org/2000/svg" viewBox="0 0 640 400" width="640" height="400" role="img"><title>Classmates wave as one leaves and mark that they will meet tomorrow.</title><rect width="640" height="400" rx="22" fill="#fbf8f1"/><rect x="438" y="35" width="135" height="135" rx="5" fill="#dfeeed" stroke="#9ebeb7" stroke-width="3"/><path d="M505 37v131M441 103h129" stroke="#fbf8f1" stroke-width="8"/><path d="M0 307h640v93H0z" fill="#ece8da"/><path d="M0 307h640" stroke="#d6d3c5" stroke-width="2"/><rect x="42" y="33" width="228" height="115" rx="5" fill="#739d8f" stroke="#496f60" stroke-width="5"/><path d="M64 127h178" stroke="#dce7cf" stroke-width="4"/><rect x="26" y="16" width="588" height="36" rx="18" fill="#fffdf7" fill-opacity=".96"/><text x="44" y="39" fill="#244a43" font-family="Arial,sans-serif" font-size="17" font-weight="600" text-anchor="start">Leaving until the next day</text><path d="M75 226Q186 275 307 236T565 180" stroke="#87aa99" stroke-width="3" stroke-dasharray="6 8" fill="none"/><ellipse cx="127" cy="298" rx="76" ry="9" fill="#718878" fill-opacity=".12"/><ellipse cx="320" cy="271" rx="87" ry="9" fill="#718878" fill-opacity=".12"/><ellipse cx="518" cy="246" rx="70" ry="9" fill="#718878" fill-opacity=".12"/><svg x="46" y="134" width="163" height="163" viewBox="100.98428750000001 39.86221875 636.466759375 770.6695625" preserveAspectRatio="xMidYMid meet"><path d="M429.1 216.98c2.42 0 4.391 1.75 4.391 3.92 0 2.16-1.971 3.91-4.391 3.91-2.43 0-4.399-1.75-4.399-3.91-.001-2.17 1.969-3.92 4.399-3.92zM534.03 220.87c0 2.16-1.96 3.91-4.391 3.91-2.42 0-4.39-1.75-4.39-3.91 0-2.17 1.97-3.92 4.39-3.92 2.431 0 4.391 1.75 4.391 3.92z" fill="#231f20"/><path d="M534.03 220.87c0-2.17-1.96-3.92-4.391-3.92-2.42 0-4.39 1.75-4.39 3.92 0 2.16 1.97 3.91 4.39 3.91 2.431 0 4.391-1.75 4.391-3.91zm-3.79-8.23c4.27-.09 8.26.88 11.92 2.59l-.59 1.95c.43 1.03.31 1.83.31 3.59 0 6.41-5.46 11.62-12.16 11.62-6.729 0-12.18-5.21-12.18-11.62 0-.92-.12-1.32-.14-1.7l-3.471-.02c4.501-3.86 10.471-6.27 16.311-6.41zM433.49 220.9c0-2.17-1.971-3.92-4.391-3.92-2.43 0-4.399 1.75-4.399 3.92 0 2.16 1.97 3.91 4.399 3.91 2.421 0 4.391-1.75 4.391-3.91zm7.81.23c0 6.42-5.439 11.62-12.16 11.62-6.72 0-12.18-5.2-12.18-11.62 0-1.34-.06-2.13.1-2.89l-4.29-.46c4.67-3.05 9.99-4.91 15.84-4.78 5.3.12 10.729 2.13 15.05 5.39l-2.36 2.74z" fill="#fff"/><path d="M211.43 771.95c-14.92 11.31-28.61 16.93-39.21 14.91-28.69-5.45-41.69-52.061-46.06-85.051-3.89-29.42 12.69-92.79 12.69-92.79l55.42-160.68.92.09 74.84 6.98s-1.12 44.3-1.55 90.26c-.54 57.2.91 166.36-28.23 199.03-9.79 10.981-19.54 20.221-28.82 27.251z" fill="#bd2025"/><path d="M267.84 206.08c.1-.53.19-1.01.28-1.44 3.01-14.8 17.36-10.52 17.47-1.11.07 5.52-4.15 86.76-5.07 100.53l.6.15c5.23-10.74 5.54-27.41 7.88-33.57 0 0 4.4-9.66 11.16-11.64 3.94-1.16 11.39-4.21 10.59 15.04-.06 1.44-.12 2.95-.17 4.5 0 0-1.79 18.1-1.58 34.07.17 12.69-4.61 39.17-6 41.73-8.77 16.31-16.41 17.23-22.61 30.97-.7 1.54-1.38 3.25-2.04 5.15-5.82 16.81-7.43 38.05-7.96 51.75-.26 6.58-.26 11.42-.36 13.2l-74.84-6.98.35-3.75c.8-6.14 1.15-12.189 1.09-17.81-.16-13.14-.07-32.32-4.44-45.35-7.05-21.01-11.6-36.8-1.48-107.99 0 0 14.11-62.14 18.66-67.64 5.07-6.15 14.23-3.84 16.25.49 1.41-6.77 2.66-11.45 3.58-12.56 5.14-6.25 14.48-3.77 16.34.66l.35.06c1.54-8.71 2.95-14.86 4-16.13 5.15-6.24 14.19-4.58 17.35 1.39 0 0 1.68 16.79.06 26.19l.54.09z" fill="#ffeec8" class="aac-skin-fill"/><path d="M713.5 498.27L211.43 771.95c9.28-7.03 19.03-16.271 28.82-27.25 29.14-32.67 27.69-141.83 28.23-199.03.43-45.96 1.55-90.26 1.55-90.26.1-1.78.1-6.62.36-13.2 6.58-28.83 30.83-43.35 32.71-43.77l61.26-17.88s40.02-10.14 41.45-41.66c11.53 14.24 25.31 25.16 40.32 31.81 2.93 1.3 8.08 2.16 10.73 2.72l25.229.88c9.061 0 19.65-.48 28.62-4.8 12.81-6.18 24.67-15.51 34.94-27.38l1.699.5c0 32.9 41.49 43.41 41.49 43.41 20.851 6.09 42.71 8.34 63.08 16.13 20.652 7.9 50.192 47.96 61.582 96.1z" fill="#bd2025"/><path d="M371.14 233.67c0 16.57 2.09 32.34 5.91 46.95l-.23.06c-11.73 2.24-17.35-7.32-17.75-12.25-1.06-12.95 2.76-19.2-5.57-36.18-3.42-6.98-5.1-20.96 7.35-22.96 3.28-.52 6.27-.19 8.96.77l1.42.01c-.08 8.98-.09 18.29-.09 23.6zM582.87 208.83l1.189-.01a17.44 17.44 0 0 1 5.9-1.01c.99 0 2 .08 3.05.25 12.471 2 10.79 15.98 7.36 22.96-8.32 16.98-4.51 23.22-5.57 36.18-.41 4.87-5.89 14.29-17.38 12.31 3.65-14.3 5.65-29.69 5.65-45.84 0-8.62-.11-14.66-.37-24.84h.171z" fill="#ffeec8" class="aac-skin-fill"/><path d="M542.16 215.23c-3.66-1.71-7.65-2.68-11.92-2.59-5.84.14-11.811 2.55-16.311 6.41l3.471.02c.02.38.14.78.14 1.7 0 6.41 5.45 11.62 12.18 11.62 6.7 0 12.16-5.21 12.16-11.62 0-1.76.12-2.56-.31-3.59l.59-1.95zM405.81 338.9c-12.8-15.79-22.85-35.65-28.76-58.28-3.82-14.61-5.91-30.38-5.91-46.95 0-5.31.01-14.62.09-23.6.04-5.04.11-9.97.2-14.05l-1.1-.85c11.57-14.81 28.27-32.03 28.27-32.03 9.34-6.85 82.919-31.12 104.73-46.35.25.22.71.41 1.3.58 4.82 2.98 24.4 16.41 50.25 52.13 4.8 6.62 23.48 21.29 27.8 38.5.011.28.021.56.021.83.26 10.18.37 16.22.37 24.84 0 16.15-2 31.54-5.65 45.84-6.29 24.66-17.479 46.1-31.77 62.62-10.271 11.87-22.131 21.2-34.94 27.38-8.97 4.32-19.56 4.8-28.62 4.8l-25.229-.88c-2.65-.56-7.801-1.42-10.73-2.72-15.012-6.65-28.792-17.57-40.322-31.81zm37.85-120.51c-4.32-3.26-9.75-5.27-15.05-5.39-5.851-.13-11.17 1.73-15.84 4.78l4.29.46c-.16.76-.1 1.55-.1 2.89 0 6.42 5.46 11.62 12.18 11.62 6.721 0 12.16-5.2 12.16-11.62l2.36-2.74zm38.11 79.33c-.149.02-.3.05-.449.07l1.04-.06c-.201 0-.401 0-.591-.01z" fill="#ffeec8" class="aac-skin-fill"/><path d="M503.33 116.79c-21.811 15.23-95.39 39.5-104.73 46.35 0 0-16.7 17.22-28.27 32.03-4.16 5.32-7.66 10.33-9.48 14.12l-1.09-35.31c0-56.32 45.97-89.01 45.97-89.01 5.32-3.62 8.88-5.43 8.88-5.43 23.44-13.95 53.76-18.87 92.44-14.36 46.7 5.44 82.54 51.96 89.37 109.86 1.11 9.41-1.55 19.37-3.189 29.32l-3.271 3.45c-2.11 0-4.08.36-5.9 1.01l-1.189.01c-.05-.28-.12-.55-.19-.83-4.319-17.21-23-31.88-27.8-38.5-25.85-35.72-45.43-49.15-50.25-52.13-.76-.47-1.149-.68-1.149-.68-.052.03-.102.07-.152.1z" fill="#9c5c25" class="aac-hair-fill"/><g fill="none" stroke="#231f20"><path d="M403.37 226.35c2.73-3.3 5.88-6.27 9.4-8.57 4.67-3.05 9.99-4.91 15.84-4.78 5.3.12 10.729 2.13 15.05 5.39 2.59 1.96 4.79 4.37 6.32 7.09" stroke-width="6.581" stroke-linecap="square" stroke-miterlimit="10"/><path d="M441.3 221.13c0 6.42-5.439 11.62-12.16 11.62-6.72 0-12.18-5.2-12.18-11.62 0-1.34-.06-2.13.1-2.89.02-.14.06-.28.11-.42M555.48 225.98c-3.7-4.48-8.19-8.34-13.32-10.75-3.66-1.71-7.65-2.68-11.92-2.59-5.84.14-11.811 2.55-16.311 6.41-2.04 1.75-3.779 3.8-5.06 6.07" stroke-width="6.581" stroke-linecap="square" stroke-miterlimit="10"/><path d="M517.4 219.07c.02.38.14.78.14 1.7 0 6.41 5.45 11.62 12.18 11.62 6.7 0 12.16-5.21 12.16-11.62 0-1.76.12-2.56-.31-3.59" stroke-width="6.581" stroke-linecap="square" stroke-miterlimit="10"/><path d="M369.81 210.06c-2.69-.96-5.68-1.29-8.96-.77-12.45 2-10.77 15.98-7.35 22.96 8.33 16.98 4.51 23.23 5.57 36.18.4 4.93 6.02 14.49 17.75 12.25M584.06 208.82a17.44 17.44 0 0 1 5.9-1.01c.99 0 2 .08 3.05.25 12.471 2 10.79 15.98 7.36 22.96-8.32 16.98-4.51 23.22-5.57 36.18-.41 4.87-5.89 14.29-17.38 12.31-.12-.01-.25-.04-.37-.06" stroke-width="13.162"/><path d="M446.13 370.71c-15.01-6.65-28.79-17.57-40.32-31.81-12.8-15.79-22.85-35.65-28.76-58.28-3.82-14.61-5.91-30.38-5.91-46.95 0-5.31.01-14.62.09-23.6.04-5.04.11-9.97.2-14.05M510.71 369.51c-8.97 4.32-19.56 4.8-28.62 4.8l-25.229-.88c-2.65-.56-7.801-1.42-10.73-2.72M582.65 206.74l.029 1.26c.011.28.021.56.021.83.26 10.18.37 16.22.37 24.84 0 16.15-2 31.54-5.65 45.84-6.29 24.66-17.479 46.1-31.77 62.62-10.271 11.87-22.131 21.2-34.94 27.38" stroke-width="21"/><path d="M481.77 297.72c5.811-1.07 4.78-4.51 11-3.01 5.36 1.3 11.061 3.98 12.391-4.41.92-5.78-3.42-6.54-5.72-11.17M481.77 297.72c.19.01.391.01.591.01l-1.04.06c.149-.02.299-.05.449-.07zM463.63 225.72c9.63 10.57 6.71 35.39 2.41 48.31l-1.81 5.03c-2.311 4.64-6.65 5.39-5.73 11.18 1.34 8.38 7.03 5.7 12.4 4.41 6.189-1.5 4.79 2.81 10.869 3.07" stroke-width="14"/><path d="M433.49 220.9c0 2.16-1.971 3.91-4.391 3.91-2.43 0-4.399-1.75-4.399-3.91 0-2.17 1.97-3.92 4.399-3.92 2.421 0 4.391 1.75 4.391 3.92zM534.03 220.87c0 2.16-1.96 3.91-4.391 3.91-2.42 0-4.39-1.75-4.39-3.91 0-2.17 1.97-3.92 4.39-3.92 2.431 0 4.391 1.75 4.391 3.92z" stroke-width="4.936"/><path d="M457.25 206.33c-5.19-10.94-25.51-15.2-35.8-13.14-9.67 1.92-14.46 3.08-24.54 10.9M499.36 203.94c5.189-10.94 25.52-15.21 35.79-13.15 9.689 1.93 14.47 3.09 24.55 10.9" stroke-width="14"/><path d="M593.23 204.36c1.64-9.95 4.3-19.91 3.189-29.32-6.83-57.9-42.67-104.42-89.37-109.86-38.68-4.51-69 .41-92.44 14.36 0 0-3.56 1.81-8.88 5.43 0 0-45.97 32.69-45.97 89.01l1.09 35.31c1.82-3.79 5.32-8.8 9.48-14.12 11.57-14.81 28.27-32.03 28.27-32.03 9.34-6.85 82.919-31.12 104.73-46.35.05-.03.1-.07.15-.1 0 0 .39.21 1.149.68 4.82 2.98 24.4 16.41 50.25 52.13 4.8 6.62 23.48 21.29 27.8 38.5.07.28.141.55.19.83.36 1.56.58 3.15.67 4.75" stroke-width="21"/><path d="M511.98 118.32c-1.08.01-5.131-.31-7.351-.95-.59-.17-1.05-.36-1.3-.58a.598.598 0 0 1-.17-.23c6.68-6.51 11.97-17.14 11.97-27.92M269.47 447.09c.25-1.67.56-3.3.92-4.88 6.58-28.83 30.83-43.35 32.71-43.77l61.26-17.88s40.02-10.14 41.45-41.66c.03-.58.04-1.16.04-1.75M715.17 506.06c-.5-2.619-1.06-5.22-1.67-7.79-11.39-48.14-40.93-88.2-61.58-96.1-20.37-7.79-42.229-10.04-63.08-16.13 0 0-41.49-10.51-41.49-43.41M211.43 771.95c-14.92 11.31-28.61 16.93-39.21 14.91-28.69-5.45-41.69-52.061-46.06-85.051-3.89-29.42 12.69-92.79 12.69-92.79l55.42-160.68.92.09 74.84 6.98s-1.12 44.3-1.55 90.26c-.54 57.2.91 166.36-28.23 199.03-9.79 10.981-19.54 20.221-28.82 27.251z" stroke-width="21"/><path d="M280.52 304.06c.92-13.77 5.14-95.01 5.07-100.53-.11-9.41-14.46-13.69-17.47 1.11-.09.43-.18.91-.28 1.44-3.06 16.56-11.79 82.81-11.79 82.81M234.15 280.67s6.62-57.19 11.74-86.13c1.54-8.71 2.95-14.86 4-16.13 5.15-6.24 14.19-4.58 17.35 1.39 0 0 1.68 16.79.06 26.19-.05.33-.11.65-.18.96M211.83 293.27s8.18-59.97 13.79-86.89c1.41-6.77 2.66-11.45 3.58-12.56 5.14-6.25 14.48-3.77 16.34.66" stroke-width="14"/><path d="M195.54 444.68c.8-6.14 1.15-12.189 1.09-17.81-.16-13.14-.07-32.32-4.44-45.35-7.05-21.01-11.6-36.8-1.48-107.99 0 0 14.11-62.14 18.66-67.64 5.07-6.15 14.23-3.84 16.25.49.04.06.06.12.09.18" stroke-width="14"/><path d="M280.39 385.31c-.7 1.54-1.38 3.25-2.04 5.15-5.82 16.81-7.43 38.05-7.96 51.75-.26 6.58-.26 11.42-.36 13.2" stroke-width="13.162"/><path d="M267.84 313.83c6.44.01 10.54-3.99 13.28-9.62 5.23-10.74 5.54-27.41 7.88-33.57 0 0 4.4-9.66 11.16-11.64 3.94-1.16 11.39-4.21 10.59 15.04-.06 1.44-.12 2.95-.17 4.5 0 0-1.79 18.1-1.58 34.07.17 12.69-4.61 39.17-6 41.73-8.77 16.31-16.41 17.23-22.61 30.97M272.33 312.62s-28.17 4.38-41.43 31.32" stroke-width="14"/><path d="M515 322.62c-5.19 9.54-18.24 16.31-33.51 16.31-15.63 0-28.92-7.08-33.87-16.97" stroke-width="14" stroke-linecap="round" stroke-linejoin="round"/></g><path fill="none" d="M0 0h850.394v850.394H0z"/></svg><svg x="224" y="78" width="191" height="190" viewBox="47.8625625 49.192078125 691.348125 775.107609375" preserveAspectRatio="xMidYMid meet"><path d="M245.32 501.29s-15.19-55.91-17.11-70.271l-1.62-2.399 3.66-2.47c7.68-5.2 13.7-9.77 16.52-18.22l1.94.37s18.22 36.69 32.35 43.28c.3-.71.64-1.42 1-2.13 1.15 13.91.88 17.99 2.45 23.899 1.51 5.601 5.3 10.48 8.85 14.66.5.59 1.16 1.34 1.89 2.13 1.62 1.761 3.6 3.74 5.06 4.65 2.32 1.46 6.73-.271 7.29-3.5.07-.39.1-.73.1-1.05l.71.029c1.65.101 4.71-.85 6.55-2.72 1.35-1.35 1.16-3.49.95-4.53 1.44 1.521 4.2-.779 6.47-2.609 2.4-1.95 1.81-4.76 1.64-5.41l.03-.01c.4 2.029 5.27-5.15 5.01-8.99-.05-.76-.12-1.49-.19-2.2v-.04c-.03-2.99-.51-6.2-1.3-7.83-1.31-5.55-2.96-8.56-3.38-9.26-3.22-5.45-17.75-11.84-22.66-16.25l-4.88-.15c.5-.51.79-.789.79-.789-4.02-12.07-16.87-39-22.27-64.931-.16-.81-.34-1.63-.5-2.47 0 0-.41-70.89-18.93-97.6-1.97-3.98-4.5-8.08-7.72-12.4l-5.28-2.28c17.18-4.67 30.55-24.91 31.35-49.65.88-26.62-13.05-49.14-31.88-53.07l3.67-.02-.26-73.17h388.51v659.6h-.46V88.97l-294.56 62.34v596.94h-77.86c-.56-2.05-3.17-4.48-8.72-7.19-10.72-5.22-38.1-13.54-26.69-41.13 0 0 3.33-15.21 10.81-34.76 7.48-19.56 25.34-74.91 26-89.689.69-14.771-18.08-72.431-18.08-72.431l-.42-1.41 1.17-.35z" fill="#0d72ba"/><path d="M152.48 533.8c-2.37-9.45-9.46-16.399-10.23-25.55l1.76-.89c4.64 9.279 10.05 14.75 12.74 17.8l22.37-4.2-13.34 3.97-.54.351c4.87 7.35 10.02 13.6 16.36 20.54 8.63 9.46 20.39 19.42 27.23 29.93 3.12 4.81 2.82 10.15 1.18 15.67-1.42 4.78-3.85 9.7-5.93 14.5-14.13 16.82-46.35 47.48-59.79 59.061-15.87 13.659-26.02 25.47-26.02 25.47-23.14 18.859-2.99 39.18 3.97 48.859 13.79 19.24-8.37 14.351-21 4.23-6.75-5.39-7.57-9.72-14.7-14.84-4.19-3.021-13.62-5.79-16.18-11.53-6.24-13.96 6.99-17.57 24.5-38.58 16.78-20.08 16.15-44.67 41.39-74.34 8.57-10.05 27.13-17.16 26-31.18-1.04-12.501-6.66-26.841-9.77-39.271zM135.15 485.04c-2.04-.25-5.67-1.33-7.3-2.63-5.09-4.05-11.65-13.03-15.85-19.28-2.02 0-3.65-15.01-3.65-33.55l2.05-.79 17.86-6.86c7.83 7.77 12.54 9.6 16.64 14.62.49.59.93 1.29 1.34 2.08 2.26 4.33 3.48 11.3 4.72 17.63.18.9.36 1.75.53 2.57 2.24 10.24 4.52 14.64 4.44 16.8-.05 2.061-1.82 3.39-3.39 2.78l-.27.29c-.72 1.42-2.82 3.479-4.96 4.09-1.69.51-3.15-.86-3.7-1.47.54 2.08-2.32 3.14-4.72 4.199-.64.271-1.23.341-1.75.301-.83-.061-1.5-.42-1.98-.78h-.01z" fill="#ffeec8" class="aac-skin-fill"/><path d="M128.26 421.93l-17.86 6.86c-6.28-7.42-23.1-31.22-14.73-65.22 7.64-20.27 21.13-49.4 28.71-66.13 9.37-20.69 18.29-36.06 28.27-47.91 0 0 9.26-6.59 20.75-10.58l3.04-.62.74 3.61s12.9 46.91-11.21 67.62c-.4.28-.79.61-1.18.97-13.98 13-22.55 71.79-27.3 97.61-1 5.45-1.84 9.44-2.51 11.21l-6.72 2.58z" fill="#a9d7f3"/><path d="M165.97 309.56c24.11-20.71 11.21-67.62 11.21-67.62l-.74-3.61 29.59-6.06a45.94 45.94 0 0 0 5.16 6.99c6.22 6.92 14.13 11.2 22.86 11.54 2.98.12 5.89-.23 8.69-1l5.28 2.28c3.22 4.32 5.75 8.42 7.72 12.4 9.67 19.5 5.9 36.08 3.24 61.49l-.86 4.31c-3.42 39.91-3.29 37.52-10.34 73.78-.27 1.38-.61 2.66-1.01 3.87-2.82 8.45-8.84 13.02-16.52 18.22l-3.66 2.47-.39.26c-11.71 5.34-27.74 1.14-38.94-1.37-15.5-3.49-35.22-9.33-46.69-18.82l-3.08-.55c4.75-25.82 13.32-84.61 27.3-97.61.4-.31.8-.63 1.18-.97z" fill="#a9d7f3"/><path d="M389.15 492.78c-8.89 0-16.11-7.21-16.11-16.101 0-8.899 7.22-16.1 16.11-16.1s16.11 7.2 16.11 16.1c0 8.891-7.22 16.101-16.11 16.101z" fill="#fbed24"/><path d="M389.15 492.78c8.89 0 16.11-7.21 16.11-16.101 0-8.899-7.22-16.1-16.11-16.1s-16.11 7.2-16.11 16.1c0 8.891 7.22 16.101 16.11 16.101zM633.67 88.97v644.52l-294.56 62.34V151.31l294.56-62.34z" fill="#9c5c25" class="aac-hair-fill"/><path d="M327.57 455.93c.79 1.63 1.27 4.84 1.3 7.83-.31-3.02-.78-5.63-1.3-7.83zM322.38 480.41c-2.27 1.83-5.03 4.13-6.47 2.609v-.01c-.31-.319-.54-.81-.71-1.5-.95-4.02-4.12-7.46-5.68-11.24-.17-.409-.37-.81-.61-1.199-.63-1.471-1.23-5.71 4.06-7.721 1.49-.56 3.98 1.79 6.23 4.771 2.37 3.16 4.48 7.02 4.85 8.87l-.03.01c.17.65.76 3.46-1.64 5.41z" fill="#ffeec8" class="aac-skin-fill"/><path d="M301.2 476.75c-1.15-2.6-1.28-4.89.73-8.16 2.42-3.91 5.41-2.07 6.98.48.24.39.44.79.61 1.199 1.56 3.78 4.73 7.221 5.68 11.24.17.69.4 1.181.71 1.5v.01c.21 1.04.4 3.181-.95 4.53-1.84 1.87-4.9 2.82-6.55 2.72l-.71-.029c0-1.74-.94-2.681-2.22-5.65h-.01c-1.69-3.32-3.33-5.69-4.27-7.84z" fill="#ffeec8" class="aac-skin-fill"/><path d="M301.2 476.75c.94 2.15 2.58 4.52 4.27 7.84h.01c1.28 2.97 2.22 3.91 2.22 5.65 0 .319-.03.66-.1 1.05-.56 3.229-4.97 4.96-7.29 3.5-1.46-.91-3.44-2.89-5.06-4.65-1.36-2.25-4.02-9.18-1-12.62 1.91-2.19 4.55-2.58 6.95-.77z" fill="#ffeec8" class="aac-skin-fill"/><path d="M294.25 477.52c-3.02 3.44-.36 10.37 1 12.62-.73-.79-1.39-1.54-1.89-2.13-3.55-4.18-7.34-9.06-8.85-14.66-1.57-5.909-1.3-9.989-2.45-23.899 4.22-8.3 12.07-16.62 14.59-19.181l4.88.15c4.91 4.41 19.44 10.8 22.66 16.25.42.7 2.07 3.71 3.38 9.26.52 2.2.99 4.811 1.3 7.83v.04c.03 3.65-.63 6.95-2.28 6.58-3.14-.689-5.71-2.11-7.31-4.32l-.08.061c-2.25-2.98-4.74-5.33-6.23-4.771-5.29 2.011-4.69 6.25-4.06 7.721-1.57-2.551-4.56-4.391-6.98-.48-2.01 3.271-1.88 5.561-.73 8.16-2.4-1.811-5.04-1.421-6.95.769z" fill="#ffeec8" class="aac-skin-fill"/><path d="M281.06 451.58c-14.13-6.59-32.35-43.28-32.35-43.28l-1.94-.37c.4-1.21.74-2.49 1.01-3.87 7.05-36.26 6.92-33.87 10.34-73.78l.86-4.31c2.66-25.41 6.43-41.99-3.24-61.49 18.52 26.71 18.93 97.6 18.93 97.6.16.84.34 1.66.5 2.47 5.4 25.93 18.25 52.86 22.27 64.931 0 0-.29.279-.79.789-2.52 2.561-10.37 10.881-14.59 19.181-.36.709-.7 1.419-1 2.129z" fill="#a8d7f4"/><path d="M179.12 520.96l65.03-19.32.42 1.41s18.77 57.66 18.08 72.431c-.66 14.779-18.52 70.13-26 89.689-7.48 19.55-10.81 34.76-10.81 34.76-11.41 27.59 15.97 35.91 26.69 41.13 5.55 2.71 8.16 5.141 8.72 7.19 1.55 5.82-13.43 8.65-25.19 6.5-8.51-1.54-11.29-4.97-20-6.09-5.11-.67-14.73 1.37-19.71-2.47-12.12-9.32-2.19-18.78 3.26-45.58 5.23-25.641-6.99-46.98 1.14-85.08.66-3.101 1.92-6.33 3.33-9.61 2.55-3.03 4.5-5.6 5.66-7.54.83-1.38.57-3.939.27-6.96 1.64-5.52 1.94-10.86-1.18-15.67-6.84-10.51-18.6-20.47-27.23-29.93-6.34-6.94-11.49-13.19-16.36-20.54l.54-.351 13.34-3.969zM206.03 232.27c-5.76-9.46-9.04-21.77-8.6-35.11.96-28.8 18.88-51.48 40.04-50.66 1.61.06 3.19.26 4.74.58 18.83 3.93 32.76 26.45 31.88 53.07-.8 24.74-14.17 44.98-31.35 49.65-2.8.77-5.71 1.12-8.69 1-8.73-.34-16.64-4.62-22.86-11.54a45.94 45.94 0 0 1-5.16-6.99z" fill="#ffeec8" class="aac-skin-fill"/><path d="M210.01 591.42c.3 3.021.56 5.58-.27 6.96-1.16 1.94-3.11 4.51-5.66 7.54 2.08-4.8 4.51-9.72 5.93-14.5z" fill="#ffeec8" class="aac-skin-fill"/><path d="M165.97 309.56c-.38.34-.78.66-1.18.97.39-.36.78-.69 1.18-.97z" fill="#a8d7f4"/><path d="M146.24 438.63c3.48 4.18 9.44 10.71 13.08 11.101 5.37.579 6.7 8.689 1.01 9.289-5.7.61-7.52-.489-7.52-.489l-1.32.3c-.17-.82-.35-1.67-.53-2.57-1.24-6.331-2.46-13.301-4.72-17.631z" fill="#ffeec8" class="aac-skin-fill"/><path d="M143.61 481.32c.55.609 2.01 1.979 3.7 1.47 2.14-.61 4.24-2.67 4.96-4.09l.27-.29c1.57.609 3.34-.72 3.39-2.78.08-2.16-2.2-6.56-4.44-16.8l1.32-.3s1.82 1.1 7.52.489c5.69-.6 4.36-8.71-1.01-9.289-3.64-.391-9.6-6.921-13.08-11.101-.41-.79-.85-1.49-1.34-2.08-4.1-5.02-8.81-6.85-16.64-14.62l6.72-2.58c.67-1.77 1.51-5.76 2.51-11.21l3.08.55c11.47 9.49 31.19 15.33 46.69 18.82 11.2 2.51 27.23 6.71 38.94 1.37l.39-.26 1.62 2.399c1.92 14.36 17.11 70.271 17.11 70.271l-1.17.35-65.03 19.32-22.37 4.2c-2.69-3.05-8.1-8.521-12.74-17.8-2.84-5.66-5.39-12.73-6.87-21.54.52.04 1.11-.03 1.75-.301 2.4-1.058 5.26-2.118 4.72-4.198z" fill="#7a7878"/><g fill="none"><path d="M389.15 460.58c8.89 0 16.11 7.2 16.11 16.1 0 8.891-7.22 16.101-16.11 16.101s-16.11-7.21-16.11-16.101c0-8.9 7.22-16.1 16.11-16.1z" stroke="#231f20" stroke-width="20.006"/><path stroke="#231f20" stroke-width="21" d="M245.88 147.06l-.26-73.17h388.51v662.39h92.03"/><path stroke="#231f20" stroke-width="26.675" d="M633.67 733.49l-294.56 62.34V151.31l294.56-62.34z"/><path d="M206.03 232.27a45.94 45.94 0 0 0 5.16 6.99c6.22 6.92 14.13 11.2 22.86 11.54 2.98.12 5.89-.23 8.69-1 17.18-4.67 30.55-24.91 31.35-49.65.88-26.62-13.05-49.14-31.88-53.07-1.55-.32-3.13-.52-4.74-.58-21.16-.82-39.08 21.86-40.04 50.66-.44 13.34 2.84 25.65 8.6 35.11z" stroke="#231f20" stroke-width="15"/><path d="M248.02 252.08c3.22 4.32 5.75 8.42 7.72 12.4 9.67 19.5 5.9 36.08 3.24 61.49l-.86 4.31c-3.42 39.91-3.29 37.52-10.34 73.78-.27 1.38-.61 2.66-1.01 3.87-2.82 8.45-8.84 13.02-16.52 18.22l-3.66 2.47-.39.26c-11.71 5.34-27.74 1.14-38.94-1.37-15.5-3.49-35.22-9.33-46.69-18.82M93.25 370.25c.71-2.08 1.52-4.32 2.42-6.68 7.64-20.27 21.13-49.4 28.71-66.13 9.37-20.69 18.29-36.06 28.27-47.91 0 0 9.26-6.59 20.75-10.58 3.55-1.24 7.31-2.23 11.07-2.7M168.5 308.25c-.86.26-1.71.7-2.53 1.31-.4.28-.79.61-1.18.97-13.98 13-22.55 71.79-27.3 97.61-1 5.45-1.84 9.44-2.51 11.21l-6.72 2.58-17.86 6.86-2.05.79" stroke="#231f20" stroke-width="14"/><path d="M135.16 485.04c1.12.13 1.76.02 1.33-.44-1.38-1.46-2.04-1.34-8.55-10.119-1.97-2.641-5.7-12.601-5.7-12.601M112 463.13c4.2 6.25 10.76 15.23 15.85 19.28 1.63 1.3 5.26 2.38 7.3 2.63" stroke="#231f20" stroke-width="7" stroke-miterlimit="10"/><path d="M134.3 484.19s.3.43.85.85h.01c.48.36 1.15.72 1.98.78.52.04 1.11-.03 1.75-.301 2.4-1.06 5.26-2.119 4.72-4.199-.09-.36-.28-.74-.59-1.17-2.45-3.28-4.27-4.851-7.79-12.641-2.18-4.87-5.71-12.49-5.71-12.49" stroke="#231f20" stroke-width="7" stroke-miterlimit="10"/><path d="M143.37 481.04s.08.11.24.28c.55.609 2.01 1.979 3.7 1.47 2.14-.61 4.24-2.67 4.96-4.09M127.18 420.85c.37.38.73.74 1.08 1.08 7.83 7.77 12.54 9.6 16.64 14.62.49.59.93 1.29 1.34 2.08 2.26 4.33 3.48 11.3 4.72 17.63.18.9.36 1.75.53 2.57 2.24 10.24 4.52 14.64 4.44 16.8-.05 2.061-1.82 3.39-3.39 2.78-.44-.17-.86-.49-1.22-.98-1.94-2.62-2.85-2.229-7.11-11.92-1.34-3.06-3.89-6.55-6.39-18.439" stroke="#231f20" stroke-width="7" stroke-miterlimit="10"/><path d="M255.57 264.23c.06.08.12.17.17.25 18.52 26.71 18.93 97.6 18.93 97.6.16.84.34 1.66.5 2.47M275.17 364.55c5.4 25.93 18.25 52.86 22.27 64.931 0 0-.29.279-.79.789-2.52 2.561-10.37 10.881-14.59 19.181-.36.71-.7 1.42-1 2.13M281.06 451.58c-14.13-6.59-32.35-43.28-32.35-43.28" stroke="#231f20" stroke-width="14"/><path d="M328.87 463.8c.07.71.14 1.44.19 2.2.26 3.84-4.61 11.02-5.01 8.99-.37-1.851-2.48-5.71-4.85-8.87-2.25-2.98-4.74-5.33-6.23-4.771-5.29 2.011-4.69 6.25-4.06 7.721.02.05.04.1.06.14M301.53 430.42c4.91 4.41 19.44 10.8 22.66 16.25.42.7 2.07 3.71 3.38 9.26.52 2.2.99 4.811 1.3 7.83" stroke="#231f20" stroke-width="7"/><path d="M315.91 483.01c-.31-.319-.54-.81-.71-1.5-.95-4.02-4.12-7.46-5.68-11.24-.17-.409-.37-.81-.61-1.199-1.57-2.551-4.56-4.391-6.98-.48-2.01 3.271-1.88 5.561-.73 8.16.94 2.15 2.58 4.52 4.27 7.84.01.01.01.03.02.04M323.97 474.86s.02.05.05.14c.17.65.76 3.46-1.64 5.41-2.27 1.83-5.03 4.13-6.47 2.609" stroke="#231f20" stroke-width="7"/><path d="M315.77 482.41s.07.229.14.6v.01c.21 1.04.4 3.181-.95 4.53-1.84 1.87-4.9 2.82-6.55 2.72M281.29 441.11c.31 3.13.56 5.89.77 8.34 1.15 13.91.88 17.99 2.45 23.899 1.51 5.601 5.3 10.48 8.85 14.66.5.59 1.16 1.34 1.89 2.13 1.62 1.761 3.6 3.74 5.06 4.65 2.32 1.46 6.73-.271 7.29-3.5.07-.39.1-.73.1-1.05 0-1.74-.94-2.681-2.22-5.65-.5-1.16-1.05-2.63-1.62-4.57" stroke="#231f20" stroke-width="7"/><path d="M304.56 481.24c-.97-2.101-2.14-3.58-3.36-4.49-2.4-1.81-5.04-1.42-6.95.77-3.02 3.44-.36 10.37 1 12.62l.03.061M327.57 455.93c.79 1.63 1.27 4.84 1.3 7.83v.04c.03 3.65-.63 6.95-2.28 6.58-3.14-.689-5.71-2.11-7.31-4.32-.36-.51-.68-1.06-.94-1.649-1.87-4.33 2.17-9.28-1.42-10.08-10.73-2.36-11.99-6.11-14.57-10.35" stroke="#231f20" stroke-width="7"/><path d="M137.09 485.51c.02.11.03.21.05.311 1.48 8.81 4.03 15.88 6.87 21.54 4.64 9.279 10.05 14.75 12.74 17.8l22.37-4.2.88-.16" stroke="#231f20" stroke-width="14"/><path d="M244.57 503.05s18.77 57.66 18.08 72.431c-.66 14.779-18.52 70.13-26 89.689-7.48 19.55-10.81 34.76-10.81 34.76-11.41 27.59 15.97 35.91 26.69 41.13 5.55 2.71 8.16 5.141 8.72 7.19 1.55 5.82-13.43 8.65-25.19 6.5-8.51-1.54-11.29-4.97-20-6.09-5.11-.67-14.73 1.37-19.71-2.47-12.12-9.32-2.19-18.78 3.26-45.58 5.23-25.641-6.99-46.98 1.14-85.08.66-3.101 1.92-6.33 3.33-9.61 2.08-4.8 4.51-9.72 5.93-14.5 1.64-5.52 1.94-10.86-1.18-15.67-6.84-10.51-18.6-20.47-27.23-29.93-6.34-6.94-11.49-13.19-16.36-20.54-.17-.261-.35-.521-.52-.79" stroke="#231f20" stroke-width="14"/><path d="M165.78 524.93l13.34-3.97 65.03-19.32 1.17-.35s-15.19-55.91-17.11-70.271M177.18 241.94s12.9 46.91-11.21 67.62c-.38.34-.78.66-1.18.97-1.04.83-2.15 1.6-3.32 2.32" stroke="#231f20" stroke-width="14"/><path d="M143.5 435.17s1.09 1.46 2.74 3.46c3.48 4.18 9.44 10.71 13.08 11.101 5.37.579 6.7 8.689 1.01 9.289-5.7.61-7.52-.489-7.52-.489" stroke="#231f20" stroke-width="7" stroke-miterlimit="10"/><path d="M100.09 350.25c-1.92 4.59-3.38 9.04-4.42 13.32-8.37 34 8.45 57.8 14.73 65.22 1.36 1.62 2.23 2.46 2.23 2.46" stroke="#231f20" stroke-width="14.949"/><path d="M108.35 429.58c0 18.54 1.63 33.55 3.65 33.55" stroke="#231f20" stroke-width="7.475"/><path stroke="#231f20" stroke-width="14.949" d="M171.92 239.25l1.48-.3 3.04-.62 29.59-6.06.1-.02"/><path d="M210.25 580.25c-1.04 3.6-.61 7.69-.24 11.17.3 3.021.56 5.58-.27 6.96-1.16 1.94-3.11 4.51-5.66 7.54-14.13 16.82-46.35 47.48-59.79 59.061-15.87 13.659-26.02 25.47-26.02 25.47-23.14 18.859-2.99 39.18 3.97 48.859 13.79 19.24-8.37 14.351-21 4.23-6.75-5.39-7.57-9.72-14.7-14.84-4.19-3.021-13.62-5.79-16.18-11.53-6.24-13.96 6.99-17.57 24.5-38.58 16.78-20.08 16.15-44.67 41.39-74.34 8.57-10.05 27.13-17.16 26-31.18-1.04-12.5-6.66-26.84-9.77-39.271-2.37-9.45-9.46-16.399-10.23-25.55" stroke="#000" stroke-width="14" stroke-linecap="round" stroke-linejoin="round"/></g><path fill="none" d="M.25.25h850.394v850.394H.25z"/></svg><svg x="438" y="74" width="160" height="168" viewBox="62.450809375000006 201.96857500000002 722.8349000000001 450.443071875" preserveAspectRatio="xMidYMid meet"><g fill="#fbed24"><path d="M240.6 429.79c27.97 0 50.63 22.65 50.63 50.62 0 27.96-22.66 50.609-50.63 50.609-27.95 0-50.61-22.649-50.61-50.609 0-27.97 22.66-50.62 50.61-50.62zM606.39 429.79c27.95 0 50.62 22.65 50.62 50.62 0 27.96-22.67 50.609-50.62 50.609-27.96 0-50.62-22.649-50.62-50.609 0-27.97 22.66-50.62 50.62-50.62z"/></g><g fill="none" stroke="#231f20"><path stroke-width="21" d="M406.87 629.13H76.12"/><path d="M291.23 480.41c0 27.96-22.66 50.609-50.63 50.609-27.95 0-50.61-22.649-50.61-50.609 0-27.97 22.66-50.62 50.61-50.62 27.97 0 50.63 22.65 50.63 50.62zM240.21 420.57v-38.51M209.49 428.07l-21.27-32.11M187.44 451.72l-34.89-16.3M272.02 427.45l21.27-32.1M294.07 451.12l34.89-16.31M270.75 533.17l21.28 32.11M292.81 509.5l34.89 16.31M208.23 533.79l-21.27 32.09M186.18 510.12l-34.89 16.3M180.27 481.01h-38.51M338.85 481.01h-38.51M240.21 577.95v-38.5" stroke-width="14"/><path stroke-width="21" d="M772.65 629.13H441.9"/><path d="M657.01 480.41c0 27.96-22.67 50.609-50.62 50.609-27.96 0-50.62-22.649-50.62-50.609 0-27.97 22.66-50.62 50.62-50.62 27.95 0 50.62 22.65 50.62 50.62zM606 420.57v-38.51M575.27 428.07L554 395.96M553.22 451.72l-34.89-16.3M637.8 427.45l21.27-32.1M659.85 451.12l34.89-16.31M636.53 533.17l21.28 32.11M658.59 509.5l34.89 16.31M574.01 533.79l-21.27 32.09M551.96 510.12l-34.89 16.3M546.05 481.01h-38.51M704.63 481.01h-38.51M606 577.95v-38.5" stroke-width="14"/><path stroke-width="21" d="M560 247.89l-31.3 93.72-89.04-43.01"/><path d="M324.68 302.99c10.09-42.03 52.05-77.09 95.29-77.09 54.66 0 102.37 44.65 102.37 108.39" stroke-width="21"/></g><path fill="none" d="M0 0h850.394v850.394H0z"/></svg><text x="127" y="336" fill="#244a43" font-family="Arial,sans-serif" font-size="15" font-weight="600" text-anchor="middle">Bye for now</text><text x="320" y="312" fill="#244a43" font-family="Arial,sans-serif" font-size="15" font-weight="600" text-anchor="middle">Going home</text><text x="518" y="289" fill="#244a43" font-family="Arial,sans-serif" font-size="15" font-weight="600" text-anchor="middle">Tomorrow</text><path d="m208 273 12 7-10 9M413 226l13 4-8 10" fill="none" stroke="#608775" stroke-width="3" stroke-linecap="round"/></svg>