<svg xmlns="http://www.w3.org/2000/svg" viewBox="0 0 640 400" width="640" height="400" role="img"><title>A learner requests that only the missed end of an explanation be repeated.</title><rect width="640" height="400" rx="22" fill="#fbf8f1"/><rect x="438" y="35" width="135" height="135" rx="5" fill="#dfeeed" stroke="#9ebeb7" stroke-width="3"/><path d="M505 37v131M441 103h129" stroke="#fbf8f1" stroke-width="8"/><path d="M0 307h640v93H0z" fill="#ece8da"/><path d="M0 307h640" stroke="#d6d3c5" stroke-width="2"/><rect x="42" y="33" width="228" height="115" rx="5" fill="#739d8f" stroke="#496f60" stroke-width="5"/><path d="M64 127h178" stroke="#dce7cf" stroke-width="4"/><rect x="26" y="16" width="588" height="36" rx="18" fill="#fffdf7" fill-opacity=".96"/><text x="44" y="39" fill="#244a43" font-family="Arial,sans-serif" font-size="17" font-weight="600" text-anchor="start">Recovering the missed ending</text><path d="M75 226Q186 275 307 236T565 180" stroke="#87aa99" stroke-width="3" stroke-dasharray="6 8" fill="none"/><ellipse cx="127" cy="298" rx="76" ry="9" fill="#718878" fill-opacity=".12"/><ellipse cx="320" cy="271" rx="87" ry="9" fill="#718878" fill-opacity=".12"/><ellipse cx="518" cy="246" rx="70" ry="9" fill="#718878" fill-opacity=".12"/><svg x="46" y="134" width="163" height="163" viewBox="62.421875 213.828125 723.828125 421.015625" preserveAspectRatio="xMidYMid meet"><style>.st0{fill:#a9d7f3}.st1{fill:#abd153}.st2{fill:#fff}.st3{fill:#ffeec8}.st4{fill:#f6cc4b}.st5{fill:#9e5c26}.st6{fill:#231f20}.st7,.st8,.st9{fill:none;stroke:#231f20;stroke-width:7;stroke-linecap:round;stroke-miterlimit:10}.st8,.st9{stroke-width:14}.st9{stroke-width:6.25}</style><path class="st0" d="M765.9 611.3l-275.5-4 38.7-53.3 5.5 5 4.5 4 5.8 4.3 7 4.5 3.7 2.2 4 2.3 4.5 2 4.5 2 4.8 1.7 5 1.5 5.2 1.5 5.3 1 5.7.8 5.8.5h6l6.2-.5 6.3-1 6.5-1.3 6.7-2 6.8-2.5 7-3 7-3.7 7.2-4.3 7.3-5.2 7.5-5.8 7.5-6.7.2-1 4.5 2.2 4.3 2 12 5.5 11.5 5.8 5.7 2.7 5.5 3 5.5 3.3 5 3.2 5 3.3 4.5 3.7 4.3 3.8 4 4 3.5 4.2 3.2 4.5 2.5 4.8 1.3 2.5zM319.6 552l40.8 55.3L82.9 616l1-3 1-2.7 1-2.8 1.2-2.5 1.5-2.5 1.5-2.5 3.5-4.5 3.8-4.5 4.2-4 4.8-4 5-3.5 5.2-3.5 5.8-3.2 5.7-3.3 6-3 12.3-6 12.2-6 4.5-2 4.3-2 4-2.5 2-1.2 1.7-1.5 2 3 2.8 4.2 4.2 4.8 5 5.2 3 2.5 3.3 2.8 3.2 2.7 3.8 2.5 4 2.5 4 2.3 4.5 2.2 4.5 1.8 4.7 1.7 5 1.3 5.3 1 5.5.7 5.5.3 6-.3 6-.7 6.2-1 6.3-1.8 6.5-2.5 7-3 6.7-3.5 7.3-4.2 7.2-5.3 7.3-5.7z"/><path class="st1" d="M316.9 389.3l-.8 2.3-.8 1.3-.3.5-1 .5-.3-.5-1.3-.3-1.3-.5-1-.5-.8-.5-1.8-1.3-1-1.5-.5-.8v-1.3l.3-2.3.5-2.5.3-1.3 2.8-2 1.8-1.5 1.8-1.5.8 1 1 1.3 1 1.8.8 2 .5 2.5v2.5l-.3 1.3-.4 1.3zm-3 0h.8l.8-.3.5-.5.5-.5.8-1.5.3-1.8-.5-1.5-.8-1.3-1.3-1-.8-.3h-.8l-.5.3-.8.3-1 1-.8 1.3-.3 1.8.5 1.5.8 1.5 1.3.8.5.3.8-.1z"/><path class="st0" d="M539.9 385v-1.5l-.8-1.5-1-1-.8-.3h-1.6l-.8.3-1 .8-1 1.3-.3 1.8.3 1.8.8 1.3.5.5.5.5.8.3.5.3h.8l.8-.3 1.3-1 .8-1.3.2-2zm2.7-4.2l.5 1.3.5 2.3.3 2.5-.3 1-.3 1-1.3 1.3-1.5 1.3-1.8 1.3-1.3.3-1.3.3v.8l-1-.5-.3-.3-.5-.5-.5-1-1-2.3-.3-1.3-.3-1.5V384l.5-2.3.8-2 1-1.8.8-1.3 1-1.3 1.5 1.5 2 1.8 2.8 2.2z"/><path class="st2" d="M306.9 388.8l1 1.5 1.7 1.2.8.5 1 .5 1.2.5 1.3.3.2.5-1 .2-1.5.5-2 .5h-2.5l-6 .3h-16l-.5-.5v-.5l.3-.8.7-1 1.5-1.2 2.5-1.3 3.8-1.7 4.2-1.5 3.8-2 3.2-2 2.8-2-.3 1.2-.5 2.5-.2 2.3v1.2zM542.6 380.8l3 2 3.3 2 3.7 1.7 4 1.8 3.8 1.5 2.7 1.5 1.5 1 .8 1 .2.7-.2.5-.3.5-9 .3h-7.2l-5.8-.3-2.2-.2-2-.3-2.5-.7v-.8l1.2-.2 1.3-.3 1.7-1.2 1.5-1.3 1.3-1.2.2-1 .3-1-.3-2.5-.5-2.3z"/><path class="st3" d="M307.4 380.8l-2.8 2-3.3 2-3.8 2-4.3 1.5-3.8 1.8-2.5 1.3-1.5 1.3-.8 1-.3.8v.5l.5.5h16.1l6-.3h2.5l2-.5 1.5-.5 1-.3 1-.5.3-.5.8-1.3.8-2.3.5-1.3.3-1.3v-2.5l-.5-2.5-.8-2-1-1.8-1-1.3-.8-1-1.8 1.5-1.8 1.5-2.5 2.2zm28 132.5l-7.3 1.3-3.5.8-3 1-2.3 1-1.8 1-1.8 1.5-1.3 1.8-1 1.5-1 1.8-.5 1.8-.5 2-.3 1.8v3.8l.3 1.8 1 3.8 1.3 3.5 1.5 3.5 4.3 5.5-7.8 6.8-7.3 5.8-7.3 5.3-7.3 4.3-6.8 3.5-7 3-6.5 2.5-6.3 1.8-6.3 1-6 .8-6 .3-5.5-.3-5.5-.8-5.3-1-5-1.3-4.8-1.8-4.5-1.8-4.5-2.3-4-2.3-4-2.5-3.8-2.5-3.3-2.8-3.3-2.8-3-2.5-5-5.3-4.3-4.8-2.8-4.3-2-3 2-2.3 1.5-2.3 1.3-3 1-3.3.5-2.8.3-3v-3l-.3-2.8-.8-6-1.3-6-3-11.5-1.3-5.8-1-5.3 2.3-1 .8-.8.8-.5 1-1.8.8-2 1.3-5 .8-3 1-3.5 6.3-21.5-.8-2.5-1-2.3-1.3-2-1.5-2-3-4-3.3-4-3.3-3.8-3.3-4.3-1.3-2.3-1.3-2.5-1-2.5-1-2.5-.5-3.3-.5-3v-3l.3-2.8.3-2.8.8-2.5.8-2.3 1.3-2.3 1.3-2.3 1.5-2 1.8-1.8 1.8-1.8 2-1.5 2-1.5 2.3-1.3 2.3-1.3 2.3-.8 2.3-.5 2-.3 1.8.3 1.8.5 1.5.8 1.5 1 1.5 1.3 1.3 1.5 1.5 1.8 2.5 3.8 2.3 4.5 2.5 5 .3 1.3.3 1 .5.8.5.3h1.3l.5-.5 1-1 .8-1 2.5-3.8 1-2.3 1-2.5 1-2.5.5-2.8 1.3-5.8.5-6.3 1-12.3.5-6.3 1-5.8.5-2.8 1-2.3 1.3-1.8 1.5-1.3 1.8-1.3 2-.8 2.3-.8 2.8-.3 6-.8 7.5-.5 8.5-1 4.5-.8 5-1 9.5-1.8 8.3-1.3 6.8-1 5.8-1 5.3-1.3 2.5-.8 2.5-.8 2.3-1 2.3-1.3 2.5-1.5 2.5-1.8 2.8-2.3 2.8-2.5 2-2.5 2-2.8 1 .3 1.8 1.5 1.8 1.5 1.5 1.8 1.5 2.3 1.3 2.8 1.5 3.3 1.3 4 1.3 5 .8 4 .5 3.3.3 3.3v2.8l-.3 6-.8 7v6.8l.3 3.3.5 3 1.3 3 1.8 3 2.5 3 3.3 3.5 12.3 11 8.5 7.3 1.3 1 .8 1 .8 1.3.5 1.3.3 1.3v2.6l-.3 1.3-.8 2.3-1.3 2-1.5 1.5-.8.5-1 .5-3.5 1.3-1.8.5-7.8 1.3-.8.3-.5.5-.5.8-.5.8-.8 2-.3 2.3v2.5l.5 2.3.8 2 .5.8.5.8 2.5 2.3 1 1 .8 1.3.3 1v.5l-.5.5-1.3 1.3-2.3 1-7.3 3.5-6.5 3.5-7 4.5-8.5 5.5 3.8 1.5 8.8 2.8 10.3 3 4.8 1.3 4 .8-.8 3.3-1 5-.5 2.5-.3 2.5v2l.5 1.5.5 2 .5 2.5v3l-.5 3-.3 1.5-.8 1.8-.8 1.3-1 1.5-1 1.3-1.5 1.3-1.5 1-1.8 1-2.8 1-3.3.8-7.5 1.3zM528.6 516l-3-1-3.5-.8-7.5-1-6.8-1.3-3-.8-2.8-1-1.8-1-1.8-1-1.3-1.3-1.3-1.3-1-1.5-.8-1.5-.5-1.5-.5-1.5-.3-3v-3l.3-2.5.8-2 .3-1.5v-2.3l-.3-2.3-.3-2.8-1-4.8-.8-3.5 3.8-.5 4.8-1.3 10.5-3 8.8-3 3.5-1.3-8.5-5.8-7-4.3-6.5-3.8-7.3-3.3-2.3-1.3-1.3-1-.3-.5v-1.8l.8-1 1-1 2.8-2.3.5-.8.5-.8.8-2 .3-2.5.3-2.3-.5-2.3-.5-2-.5-1-.5-.5-.8-.5-.8-.3-7.5-1.5-1.8-.5-3.8-1.3-.8-.3-.8-.5-1.5-1.8-1.3-1.8-.8-2.5-.3-1v-2.6l.3-1.3.5-1.3.5-1.3 1-1.3 1-1 8.5-7 5.3-4.5 7-6.8 3.3-3.3 2.5-3.3 1.8-3 1.3-3 .8-3 .3-3v-3.3l-.3-3.8-.5-6.8-.3-6v-3l.3-3 .5-3.5.8-3.8 1.3-5 1.3-4.3 1.3-3.3 1.5-2.8 1.3-2 1.8-2 1.5-1.5 2-1.5 1-.3 1.8 2.8 2.3 2.5 2.5 2.5 2.8 2.3 2.5 1.8 2.5 1.5 2.5 1.3 2.3 1 2.5 1 2.3.8 5.3 1.3 6 .8 6.8 1 8 1.5 9.5 1.8 5 1 4.8.5 8.5 1 7.3.8 6.3.5 2.5.5 2.3.5 2.3 1 1.8 1 1.5 1.5 1 1.8 1 2.3.8 2.5.8 6 .5 6 1 12.5.8 6 1 5.8.8 2.8.8 2.8 1 2.5 1.3 2.3 2.3 3.5 1 1.3.8.8.8.5.5.3h.8l.3-.3.8-.8.3-1 .3-1.3 2.3-5 2.5-4.5 2.5-4 1.3-1.5 1.5-1.5 1.3-1.3 1.5-1 1.8-.8 1.8-.5 1.8-.3 2 .3 2 .5 2.3.8 2.5 1.3 2 1.3 2.3 1.3 2 1.8 1.8 1.5 1.5 2 1.5 2 1.5 2 1 2.3 1 2.5.5 2.5.5 2.5.3 3-.3 2.8-.3 3.3-.8 3-.8 2.8-1 2.5-1.3 2.5-1.5 2-3 4.3-3.3 4-3.5 3.8-3 4-1.3 2-1.3 2.3-1 2.3-1 2.3 6.5 21.8 1 3.3.8 3.3 1 5 .8 2 1.3 1.5.5.8 1 .5 2 1-.8 5.5-1.3 5.5-3 11.8-1.3 6-1 5.8v6l.3 2.8.3 3 1 3 1 2.5 1.5 2.3 1.5 2 2 2 2 1.5 2.3 1.3 2.3 1.3-.3 1-7.5 6.8-7.5 5.8-7.3 5.3-7.3 4.3-7 3.8-7 3-6.8 2.5-6.8 2-6.5 1.3-6.3 1-6.3.5h-6l-5.8-.5-5.8-.8-5.3-1-5.3-1.5-5-1.5-4.8-1.8-4.5-2-4.5-2-4-2.3-3.8-2.3-7-4.5-5.8-4.3-4.5-4-5.5-5 5.5-7.8 1.8-3.3 1.3-3.5.8-3.8.3-2 .3-1.8v-2l-.3-1.8-.5-1.8-.8-1.8-.8-1.8-1-1.8-1.5-1.5-1.5-1.5-2-1.3-3-.2zm14-135.2l-2.5-2-2-1.8-1.5-1.5-1 1.3-.8 1.3-1 1.8-.8 2-.5 2.3v2.5l.3 1.5.3 1.3 1 2.3.5 1 .5.5.3.3 1 .5 2.5.8 2 .3 2.3.3 5.8.3h7.3l9-.3.3-.5.3-.5-.3-.8-.8-1-1.5-1-2.8-1.5-3.8-1.5-4-1.8-3.8-1.8-3.3-2-3-2.3z"/><path class="st4" d="M675.9 488.3l-2-1-1-.5-.5-.8-1.3-1.5-.7-2-1-5-.8-3.2-1-3.3-6.5-21.7 1-2.3 1-2.2 1.3-2.3 1.2-2 3-4 3.5-3.7 3.3-4 3-4.3 1.5-2 1.2-2.5 1-2.5.8-2.7.7-3 .3-3.3.2-2.7-.2-3-.5-2.5-.5-2.5-1-2.5-1-2.3-1.5-2-1.5-2-1.5-2-1.8-1.5-2-1.7-2.2-1.3-2-1.2-2.5-1.3-2.3-.7-2-.5-2-.3-1.7.3-1.8.5-1.7.7-1.5 1-1.3 1.3-1.5 1.5-1.2 1.5-2.5 4-2.5 4.5-2.3 5-.2 1.2-.3 1-.7.8-.3.2h-.7l-.5-.2-.8-.5-.7-.8-1-1.2-2.3-3.5-1.2-2.3-1-2.5-.8-2.7-.7-2.8-1-5.7-.8-6-1-12.5-.5-6-.7-6-.8-2.5-1-2.3-1-1.7-1.5-1.5-1.7-1-2.3-1-2.2-.5-2.5-.5-6.3-.5-7.2-.8-8.5-1-4.8-.5-5-1-9.5-1.7-8-1.5-6.7-1-6-.8-5.3-1.2-2.2-.8-2.5-1-2.3-1-2.5-1.2-2.5-1.5-2.5-1.8-2.7-2.2-2.5-2.5-2.3-2.5-1.7-2.8-2-3.2-1.3-3.5-.7-3.5-.3-1.8v-1.7l.3-2 .2-1.8.5-1.7.8-1.8.7-1.7 1-1.8 1.3-1.5 1.5-1.7 5-5 6.2-6 7.5-6.3 8-6.2 8.3-6.3 8.5-5.7 8-4.8 3.7-2 3.5-1.7 3.5-1.5 3.8-1 3.7-1 4-.8 4.3-.5 4.2-.2 9-.3h9.5l10 .5 10 .5 10.5.5 2.8.3 2.7.2 2.8.8 3 .7 5.7 1.8 5.8 2.5 5.7 2.7 5.5 3.3 5.5 3.2 5.3 3.5 5 3.5 4.5 3.3 7.2 6 5 4 1.8 1.7 2 2.3 5.2 6.2 3.5 4.5 4 5.3 4.3 6 4.2 6.5 2.3 3.7 1.7 4.3 1.5 4.5 1.3 5 1.2 5.2.8 5.5.7 5.8.5 5.5.3 5.7v16.3l-.8 9.5-.7 7.7-1.3 7.3-1.7 9-2.5 10-1.3 5.5-1.7 5.2-2 5.5-2.5 5.8-2.5 5.5-3 5.2-3.3 5.5-3.7 5.3-4 4.7-4.8 4.8-14 13.5-5.2 5-4.3 3.5-2 1.5-2 1.2-2 1-2 .8-2 .5-2 .2-2.2.3h-2.3l-3.2-.5z"/><path class="st5" d="M174.1 488.5l-2.5.5-3 .3h-4.5l-2.2-.5-2-.5-1.8-.8-2-1-2-1-2-1.5-4.5-3.7-5.2-4.8-14-13.5-4.5-4.7-4.3-5-3.5-5.3-3.5-5.2-2.7-5.5-2.8-5.5-2.2-5.5-2-5.5-1.8-5.5-1.5-5.3-2.2-10-1.8-9-1.2-7.5-1-7.7-.5-9.3-.3-10.7.3-5.5.2-5.8.5-5.7.8-5.5.7-5.5 1-5.3 1.3-5 1.7-4.7 1.8-4.3 2-3.7 4.5-6.5 4.2-6 4-5.3 3.5-4.5 5.3-6.2 2-2.3 1.7-1.5 4.8-4.2 7.5-5.8 4.5-3.5 4.7-3.2 5.3-3.5 5.5-3.5 5.7-3 5.8-3 5.7-2.3 5.8-2 2.7-.7 2.8-.5 2.7-.5h2.8l10.5-.5 10.2-.5 10-.5 9.3-.3 9 .3 4.5.2 4 .5 4 .8 4 1 3.5 1.2 3.5 1.3 3.7 1.7 3.8 2 8 5 8.2 5.5 8.5 6.3 8 6.5 7.5 6.2 6.3 5.8 5 5 1.2 1.7 1.3 1.8 1 1.7 1 1.8.5 1.7.5 1.8.5 1.7v5.3l-.8 3.5-1.5 3.5-1.7 3.5-2 2.7-2 2.5-2.8 2.5-2.7 2.3-2.5 1.7-2.5 1.5-2.3 1.3-2.2 1-2.5.7-2.5.8-5.3 1.2-5.7 1-6.8 1-8.2 1.3-9.5 1.7-5 1-4.5.8-8.5 1-7.5.5-6 .7-2.8.3-2.2.7-2 .8-1.8 1.2-1.5 1.3-1.2 1.7-1 2.3-.5 2.7-1 5.8-.5 6.2-1 12.3-.5 6.2-1.3 5.8-.5 2.7-1 2.5-1 2.5-1 2.3-2.5 3.7-.7 1-1 1-.5.5h-1.3l-.5-.2-.5-.8-.2-1-.3-1.2-2.5-5-2.2-4.5-2.5-3.8-1.5-1.7-1.3-1.5-1.5-1.3-1.5-1-1.5-.7-1.7-.5-1.8-.3-2 .3-2.2.5-2.3.7-2.2 1.3-2.3 1.2-2 1.5-2 1.5-1.7 1.8-1.8 1.7-1.5 2-1.2 2.3-1.3 2.2-.7 2.3-.8 2.5-.2 2.7-.3 2.8v3l.5 3 .5 3.2 1 2.5 1 2.5 1.3 2.5 1.2 2.3 3.3 4.2 3.2 3.8 3.3 4 3 4 1.5 2 1.2 2 1 2.2.8 2.5-6.3 21.5-1 3.5-.7 3-1.3 5-.7 2-1 1.8-.8.5-.7.7z"/><path class="st6" d="M536.6 380.8h.8l.7.2 1 1 .8 1.5v1.5l-.3 1.8-.7 1.2-1.3 1-.7.3h-.8l-.5-.3-.7-.2-.5-.5-.5-.5-.8-1.3-.2-1.7.2-1.8 1-1.2 1-.8.8-.2zM313.4 380.8h.7l.8.2 1.2 1 .8 1.3.5 1.5-.3 1.7-.7 1.5-.5.5-.5.5-.8.3h-1.5l-.5-.3-1.2-.7-.8-1.5-.5-1.5.3-1.8.7-1.2 1-1 .8-.3z"/><path class="st7" d="M314.1 393.8l1-.5.3-.5.7-1.3.8-2.2.5-1.3.2-1.2v-2.5l-.5-2.5-.7-2-1-1.8-1-1.2-.8-1-1.7 1.5-1.8 1.5-2.7 2-2.8 2-3.2 2-3.8 2-4.2 1.5-3.8 1.7-2.5 1.3-1.5 1.2-.7 1-.3.8v.5l.5.5h16l6-.3h2.5l2-.5 1.5-.5z"/><path class="st8" d="M321.1 361l-1.7-.7-2.3-.3-3-.2h-4l-5.2.7-2.8.5-3.2.8-3.3 1-3.7 1.2-4 1.8-3.8 1.7-3.2 1.8-3 1.7-2.5 2-2.3 1.8-3.5 3.5"/><path class="st9" d="M307.4 380.8l-.3 1.2-.5 2.5-.2 2.3v1.2l.5.8 1 1.5 1.7 1.2.8.5 1 .5 1.2.5 1.3.3"/><path class="st8" d="M327.9 311.3l-2 2.7-2 2.5-2.8 2.5-2.7 2.3-2.5 1.7-2.5 1.5-2.3 1.3-2.2 1-2.5.7-2.5.8-5.3 1.2-5.7 1-6.8 1-8.2 1.3-9.5 1.7-5 1-4.5.8-8.5 1-7.5.5-6 .7-2.8.3-2.2.7-2 .8-1.8 1.2-1.5 1.3-1.2 1.7-1 2.3-.5 2.7-1 5.8-.5 6.2-1 12.3-.5 6.2-1.3 5.8-.5 2.7-1 2.5-1 2.5-1 2.3-2.5 3.7-.7 1-1 1-.5.5h-1.3l-.5-.2-.5-.8-.2-1-.3-1.2-2.5-5-2.2-4.5-2.5-3.8-1.5-1.7-1.3-1.5-1.5-1.3-1.5-1-1.5-.7-1.7-.5-1.8-.3-2 .3-2.2.5-2.3.7-2.2 1.3-2.3 1.2-2 1.5-2 1.5-1.7 1.8-1.8 1.7-1.5 2-1.2 2.3-1.3 2.2-.7 2.3-.8 2.5-.2 2.7-.3 2.8v3l.5 3 .5 3.2 1 2.5 1 2.5 1.3 2.5 1.2 2.3 3.3 4.2 3.2 3.8 3.3 4 3 4 1.5 2 1.2 2 1 2.2.8 2.5-6.3 21.5-1 3.5-.7 3-1.3 5-.7 2-1 1.8-.8.5-.7.7-2.3 1-2.5.5-3 .3h-4.5l-2.2-.5-2-.5-1.8-.8-2-1-2-1-2-1.5-4.5-3.7-5.2-4.8-14-13.5-4.5-4.7-4.3-5-3.5-5.3-3.5-5.2-2.7-5.5-2.8-5.5-2.2-5.5-2-5.5-1.8-5.5-1.5-5.3-2.2-10-1.8-9-1.2-7.5-1-7.7-.5-9.3-.3-10.7.3-5.5.2-5.8.5-5.7.8-5.5.7-5.5 1-5.3 1.3-5 1.7-4.7 1.8-4.3 2-3.7 4.5-6.5 4.2-6 4-5.3 3.5-4.5 5.3-6.2 2-2.3 1.7-1.5 4.8-4.2 7.5-5.8 4.5-3.5 4.7-3.2 5.3-3.5 5.5-3.5 5.7-3 5.8-3 5.7-2.3 5.8-2 2.7-.7 2.8-.5 2.7-.5h2.8l10.5-.5 10.2-.5 10-.5 9.3-.3 9 .3 4.5.2 4 .5 4 .8 4 1 3.5 1.2 3.5 1.3 3.7 1.7 3.8 2 8 5 8.2 5.5 8.5 6.3 8 6.5 7.5 6.2 6.3 5.8 5 5 1.2 1.7 1.3 1.8 1 1.7 1 1.8.5 1.7.5 1.8.5 1.7v5.3l-.8 3.5-1.5 3.5z"/><path class="st8" d="M173.9 484.8l.2 3.7 1 5.3 1.3 5.7 3 11.5 1.2 6 .8 6 .2 2.8v3l-.2 3-.5 2.7-1 3.3-1.3 3-1.5 2.2-2 2.3-1.7 1.5-2 1.2-4 2.5-4.3 2-4.5 2-12.2 6-12.3 6-6 3-5.7 3.3-5.8 3.2-5.2 3.5-5 3.5-4.8 4-4.2 4-3.8 4.5-3.5 4.5-1.5 2.5-1.5 2.5-1.2 2.5-1 2.8-1 2.7-1 3M335.4 513.3l6.7-1.3 3.3-.7 2.7-1 1.8-1 1.5-1 1.5-1.3 1-1.2 1-1.5.7-1.3.8-1.7.2-1.5.5-3v-3l-.5-2.5-.5-2-.5-1.5v-2l.3-2.5.5-2.5 1-5 .7-3.3-4-.7-4.7-1.3-10.3-3-8.7-2.7-3.8-1.5 8.5-5.5 7-4.5 6.5-3.5 7.3-3.5 2.2-1 1.3-1.3.5-.5v-.5l-.3-1-.7-1.2-1-1-2.5-2.3-.5-.7-.5-.8-.8-2-.5-2.2v-2.5l.3-2.3.7-2 .5-.7.5-.8.5-.5.8-.2 7.7-1.3 1.8-.5 3.5-1.2 1-.5.7-.5 1.5-1.5 1.3-2 .7-2.3.3-1.2v-2.5l-.3-1.3-.5-1.2-.7-1.3-.8-1-1.2-1-8.5-7.2-12.3-11-3.2-3.5-2.5-3-1.8-3-1.2-3-.5-3-.3-3.3v-6.7l.8-7 .2-6V344l-.2-3.2-.5-3.3-.8-4-1.2-5-1.3-4-1.5-3.2-1.2-2.8-1.5-2.2-1.5-1.8-1.8-1.5-1.7-1.5M360.4 607.3L319.6 552l-4.2-5.5-1.5-3.5-1.3-3.5-1-3.7-.2-1.8v-3.7l.2-1.8.5-2 .5-1.7 1-1.8 1-1.5 1.3-1.7 1.7-1.5 1.8-1 2.2-1 3-1 3.5-.8 7.3-1.2"/><path class="st8" d="M268.9 518l4.7.3 12.5.2 8.3-.2 8.7-.3 9.3-.7 9.2-1 7-1.3 6.8-1.7 2.7-1"/><path class="st7" d="M536.4 393.8l-1-.5-.3-.3-.5-.5-.5-1-1-2.2-.2-1.3-.3-1.5V384l.5-2.2.8-2 1-1.8.7-1.2 1-1.3 1.5 1.5 2 1.8 2.5 2 3 2 3.3 2 3.7 1.7 4 1.8 3.8 1.5 2.7 1.5 1.5 1 .8 1 .2.7-.2.5-.3.5-9 .3h-7.2l-5.8-.3-2.2-.2-2-.3z"/><path class="st8" d="M528.9 360.8l1.7-.5 2.3-.5 3.2-.3 4 .3 5 .5 3 .7 3 .8 3.5 1 3.5 1.2 4.3 1.8 3.7 1.7 3.3 1.8 2.7 1.7 2.5 1.8 2.3 2 3.7 3.2"/><path class="st9" d="M542.6 380.8l.5 1.2.5 2.3.3 2.5-.3 1-.2 1-1.3 1.2-1.5 1.3-1.7 1.2-1.3.3-1.2.2h-.3"/><path class="st8" d="M522.4 311l1.7 2.8 2.3 2.5 2.5 2.5 2.7 2.2 2.5 1.8 2.5 1.5 2.5 1.2 2.3 1 2.5 1 2.2.8 5.3 1.2 6 .8 6.7 1 8 1.5 9.5 1.7 5 1 4.8.5 8.5 1 7.2.8 6.3.5 2.5.5 2.2.5 2.3 1 1.7 1 1.5 1.5 1 1.7 1 2.3.8 2.5.7 6 .5 6 1 12.5.8 6 1 5.7.7 2.8.8 2.7 1 2.5 1.2 2.3 2.3 3.5 1 1.2.7.8.8.5.5.2h.7l.3-.2.7-.8.3-1 .2-1.2 2.3-5 2.5-4.5 2.5-4 1.2-1.5 1.5-1.5 1.3-1.3 1.5-1 1.7-.7 1.8-.5 1.7-.3 2 .3 2 .5 2.3.7 2.5 1.3 2 1.2 2.2 1.3 2 1.7 1.8 1.5 1.5 2 1.5 2 1.5 2 1 2.3 1 2.5.5 2.5.5 2.5.2 3-.2 2.7-.3 3.3-.7 3-.8 2.7-1 2.5-1.2 2.5-1.5 2-3 4.3-3.3 4-3.5 3.7-3 4-1.2 2-1.3 2.3-1 2.2-1 2.3 6.5 21.7 1 3.3.8 3.2 1 5 .7 2 1.3 1.5.5.8 1 .5 2 1 2.5.5 3.2.5h2.3l2.2-.3 2-.2 2-.5 2-.8 2-1 2-1.2 2-1.5 4.3-3.5 5.2-5 14-13.5 4.8-4.8 4-4.7 3.7-5.3 3.3-5.5 3-5.2 2.5-5.5 2.5-5.8 2-5.5 1.7-5.2 1.3-5.5 2.5-10 1.7-9 1.3-7.3.7-7.7.8-9.5V349l-.3-5.7-.5-5.5-.7-5.8-.8-5.5-1.2-5.2-1.3-5-1.5-4.5-1.7-4.3-2.3-3.7-4.2-6.5-4.3-6-4-5.3-3.5-4.5-5.2-6.2-2-2.3-1.8-1.7-5-4-7.2-6-4.5-3.3-5-3.5-5.3-3.5-5.5-3.2-5.5-3.3-5.7-2.7-5.8-2.5-5.7-1.8-3-.7-2.8-.8-2.7-.2-2.8-.3-10.5-.5-10-.5-10-.5h-9.5l-9 .3-4.2.2-4.3.5-4 .8-3.7 1-3.8 1-3.5 1.5-3.5 1.7-3.7 2-8 4.8-8.5 5.7-8.3 6.3-8 6.2-7.5 6.3-6.2 6-5 5-1.5 1.7-1.3 1.5-1 1.8-.7 1.7-.8 1.8-.5 1.7-.2 1.8-.3 2v1.7l.3 1.8.7 3.5 1.3 3.5z"/><path class="st8" d="M676.4 484.5l-.5 3.8-.8 5.5-1.2 5.5-3 11.7-1.3 6-1 5.8v6l.3 2.7.2 3 1 3 1 2.5 1.5 2.3 1.5 2 2 2 2 1.5 2.3 1.2 2.2 1.3 4.5 2.2 4.3 2 12 5.5 11.5 5.8 5.7 2.7 5.5 3 5.5 3.3 5 3.2 5 3.3 4.5 3.7 4.3 3.8 4 4 3.5 4.2 3.2 4.5 2.5 4.8 1.3 2.5 1 2.5 1.2 4.5M490.4 607.3l38.7-53.3 5.5-7.7 1.8-3.3 1.2-3.5.8-3.7.2-2 .3-1.8v-2l-.3-1.7-.5-1.8-.7-1.7-.8-1.8-1-1.7-1.5-1.5-1.5-1.5-2-1.3-2-1-3-1-3.5-.7-7.5-1-6.7-1.3-3-.7-2.8-1-1.7-1-1.8-1-1.2-1.3-1.3-1.2-1-1.5-.7-1.5-.5-1.5-.5-1.5-.3-3v-3l.3-2.5.7-2 .3-1.5v-2.3l-.3-2.2-.2-2.8-1-4.7-.8-3.5 3.8-.5 4.7-1.3 10.5-3 8.8-3 3.5-1.2-8.5-5.8-7-4.2-6.5-3.8-7.3-3.2-2.2-1.3-1.3-1-.2-.5v-1.7l.7-1 1-1 2.8-2.3.5-.7.5-.8.7-2 .3-2.5.2-2.2-.5-2.3-.5-2-.5-1-.5-.5-.7-.5-.8-.2-7.5-1.5-1.7-.5-3.8-1.3-.7-.2-.8-.5-1.5-1.8-1.2-1.7-.8-2.5-.2-1v-2.5l.2-1.3.5-1.2.5-1.3 1-1.2 1-1 8.5-7 5.3-4.5 7-6.8 3.2-3.2 2.5-3.3 1.8-3 1.2-3 .8-3 .2-3v-3.2l-.2-3.8-.5-6.7-.3-6v-3l.3-3 .5-3.5.7-3.8 1.3-5 1.2-4.2 1.3-3.3 1.5-2.7 1.2-2 1.8-2 1.5-1.5 2-1.5"/><path class="st8" d="M581.1 518l-4.7.3h-20.5l-9-.3-9-.7-9.3-1.3-7.2-1.2-6.8-1.5-2.7-1M174.4 543.3l.2.7.5 1.3 2 3 2.8 4.2 4.2 4.8 5 5.2 3 2.5 3.3 2.8 3.2 2.7 3.8 2.5 4 2.5 4 2.3 4.5 2.2 4.5 1.8 4.7 1.7 5 1.3 5.3 1 5.5.7 5.5.3 6-.3 6-.7 6.2-1 6.3-1.8 6.5-2.5 7-3 6.7-3.5 7.3-4.2 7.2-5.3 7.3-5.7 7.7-6.8.8-.7M528.4 553.3l.7.7 5.5 5 4.5 4 5.8 4.3 7 4.5 3.7 2.2 4 2.3 4.5 2 4.5 2 4.8 1.7 5 1.5 5.2 1.5 5.3 1 5.7.8 5.8.5h6l6.2-.5 6.3-1 6.5-1.3 6.7-2 6.8-2.5 7-3 7-3.7 7.2-4.3 7.3-5.2 7.5-5.8 7.5-6.7"/></svg><svg x="224" y="78" width="191" height="190" viewBox="74.375 154.0625 698.59375 541.875" preserveAspectRatio="xMidYMid meet"><style>.st0{fill:#ffffc2}.st1{fill:#231f20}.st2,.st3{fill:none;stroke:#231f20;stroke-width:35;stroke-linecap:round;stroke-miterlimit:10}.st3{stroke-width:28.25}</style><path class="st0" d="M742.5 223.3V628l-.3 3.8-.5 3.8-1 3.5-1.3 3.5-1.5 3.3-2 3.3-2.3 2.8-2.3 2.8-2.8 2.5-3 2-3 2-3.3 1.5-3.5 1.3-3.8 1-3.5.5-4 .3H143.3l-4-.3-3.5-.5-3.8-1-3.5-1.3-3.3-1.5-3-2-3-2-2.8-2.5-2.3-2.8-2.1-3-2-3.3-1.5-3.3-1.3-3.5-1-3.5-.5-3.8-.3-3.8V223.3l.3-4 .5-3.8 1-3.5 1.3-3.5 1.5-3.3 2-3 2.3-3 2.3-2.8 2.8-2.5 3-2 3-2 3.3-1.5 3.5-1.3 3.8-1 3.5-.5 4-.3H705l4 .3 3.5.5 3.8 1 3.5 1.3 3.3 1.5 3 2 3 2 2.8 2.5 2.3 2.8 2.3 3 2 3 1.5 3.3 1.3 3.5 1 3.5.5 3.8-.3 4zM660 555.5V293.8l-113.3 65.5-113.3 65.5 113.3 65.5L660 555.5zm-251 0V293.8l-113.3 65.5-113.3 65.5 113.3 65.5L409 555.5z"/><path class="st1" d="M660 424.8v130.7l-113.2-65.2-113.3-65.5 113.3-65.5L660 293.8zM409 424.8v130.7l-113.2-65.2-113.3-65.5 113.3-65.5L409 293.8z"/><path class="st2" d="M742.5 628l-.2 3.8-.5 3.7-1 3.5-1.3 3.5-1.5 3.3-2 3.2-2.2 2.8-2.3 2.7-2.7 2.5-3 2-3 2-3.3 1.5-3.5 1.3-3.7 1-3.5.5-4 .2H143.3l-4-.2-3.5-.5-3.8-1-3.5-1.3-3.2-1.5-3-2-3-2-2.8-2.5-2.2-2.7-2.3-2.8-2-3.2-1.5-3.3-1.2-3.5-1-3.5-.5-3.7-.3-3.8V223.3l.3-4 .5-3.8 1-3.5 1.2-3.5 1.5-3.2 2-3 2.3-3 2.2-2.8 2.8-2.5 3-2 3-2 3.2-1.5 3.5-1.2 3.8-1 3.5-.5 4-.3h561.5l4 .3 3.5.5 3.7 1 3.5 1.2 3.3 1.5 3 2 3 2 2.7 2.5 2.3 2.8 2.2 3 2 3 1.5 3.2 1.3 3.5 1 3.5.5 3.8.2 4z"/><path class="st3" d="M182.5 424.8l113.3 65.5L409 555.5V293.8l-113.2 65.5zM433.5 424.8l113.3 65.5L660 555.5V293.8l-113.2 65.5z"/></svg><svg x="438" y="74" width="160" height="168" viewBox="98.32680625 86.368140625 659.05535 675.0002375" preserveAspectRatio="xMidYMid meet"><path fill="none" stroke="#231f20" stroke-width="28" d="M387.225 113.13l343.82 90.923v440.899l-343.82 90.927"/><g stroke="#231f20" stroke-width="35"><path fill="#fff" d="M112.488 424.339h488.98"/><path fill="none" d="M482.708 314.811l121.07 109.93-121.26 109.901"/></g><path fill="none" d="M0 0h850.394v850.394H0z"/></svg><text x="127" y="336" fill="#244a43" font-family="Arial,sans-serif" font-size="15" font-weight="600" text-anchor="middle">The explanation</text><text x="320" y="312" fill="#244a43" font-family="Arial,sans-serif" font-size="15" font-weight="600" text-anchor="middle">Please repeat</text><text x="518" y="289" fill="#244a43" font-family="Arial,sans-serif" font-size="15" font-weight="600" text-anchor="middle">The last part</text><path d="m208 273 12 7-10 9M413 226l13 4-8 10" fill="none" stroke="#608775" stroke-width="3" stroke-linecap="round"/></svg>