<svg xmlns="http://www.w3.org/2000/svg" viewBox="0 0 640 400" width="640" height="400" role="img"><title>A person shows a draft on paper and asks someone to look it over.</title><rect width="640" height="400" rx="22" fill="#fbf8f1"/><rect x="438" y="35" width="135" height="135" rx="5" fill="#dfeeed" stroke="#9ebeb7" stroke-width="3"/><path d="M505 37v131M441 103h129" stroke="#fbf8f1" stroke-width="8"/><path d="M0 307h640v93H0z" fill="#ece8da"/><path d="M0 307h640" stroke="#d6d3c5" stroke-width="2"/><rect x="26" y="16" width="588" height="36" rx="18" fill="#fffdf7" fill-opacity=".96"/><text x="44" y="39" fill="#244a43" font-family="Arial,sans-serif" font-size="17" font-weight="600" text-anchor="start">Asking someone to inspect work</text><path d="M316 296h285l-20 49H337Z" fill="#dcb98c"/><path d="M337 345v32M580 345v32" stroke="#ab875f" stroke-width="8"/><ellipse cx="168" cy="321" rx="91" ry="9" fill="#718878" fill-opacity=".12"/><svg x="44" y="78" width="252" height="242" viewBox="53.149625 39.86221875 762.6971187500001 753.395934375" preserveAspectRatio="xMidYMid meet"><g fill="#fff"><path d="M532.148 159.511V616H164.007V159.511h323.21z"/><path d="M487.217 107.508v52.003h-323.21v404.486h-44.931V107.508h322.675z"/><path d="M441.751 60.4v47.108H119.076V516.89H73.61V60.4z"/></g><g fill="none" stroke="#000" stroke-width="14"><path d="M441.751 107.508h45.466v52.003M119.076 516.89V107.508h322.675"/><path d="M119.076 516.89H73.61V60.4h368.141v47.108M164.007 563.997h-44.931V516.89"/><path d="M164.007 563.997V159.511h323.21"/><path d="M487.217 159.511h44.931V616H164.007v-52.003"/></g><path fill="none" d="M0 0h850.394v850.394H0z"/><g><path fill="#fbee34" d="M708.968 724.207L378.039 375.224l39.675-37.622 322.871 340.484 8.058 8.498z"/><path fill="#c8c8c8" d="M748.674 686.573l42.67 44.995-39.674 37.623L709 724.196z"/><path fill="#ffeec8" d="M378.039 375.224l-20.132-44.046 17.426-16.523 42.381 22.947z"/><path fill="#fff" d="M357.907 331.178l-15.765-34.492 33.191 17.969z"/><g fill="none" stroke="#000"><path stroke-width="17.578" d="M378.039 375.224l39.675-37.622 322.871 340.484 8.058 8.498 42.669 44.997-39.675 37.623-42.669-44.997zM708.968 724.207l39.675-37.623M417.714 337.602l-42.381-22.947-33.191-17.969 15.765 34.492 20.132 44.046"/><path stroke-width="16.054" d="M375.333 314.655l-17.426 16.523"/></g></g></svg><svg x="333" y="117" width="160" height="177" viewBox="75.703125 47.8125 697.265625 754.375" preserveAspectRatio="xMidYMid meet"><style>.st0{fill:#f6cc4b}.st1{fill:#ffffc2}.st2{fill:#a9d7f3}.st3{fill:#ffeec8}.st4{fill:none;stroke:#231f20;stroke-width:14;stroke-linecap:round;stroke-miterlimit:10}</style><path class="st0" d="M542.4 592l-4-42h-7l-3.5-.5-3.8-.5-7.5-1.8-7.5-2.3-7.5-2.3-7.3-1.8-3.5-.8-3.3-.3-3.3-.3-3 .3-11 1.8-3.8.8-2.8 1-1.8 1.3-.8.8-.8.8-1 2-1 2.5-3-1.3-1.5-.3h-2.8l-1.3.5-1.3.8-1.3 1-1 1.3-1 1.8-1 2-.5 2.5-.5 1.5v3l.3 1.3.8 2.8 1.3 2.3 1.8 2.5 2 2 4.3 4.3h.3l.5 2 .5 2 .8 1.8 1 1.8 1.3 1.8 1.5 1.3 1.8 1.5 2.3 1 2.5 1 3.8 1 4.5.8 5.3 1 5.8.8 6.3.5 6.8.5 6.5.5 6.5.3h6.5l5.8-.3 5.5-.5 4.8-.8 4-1 1.5-.8 1.3-.8 1-.8.5-1.3zm9.3 7.3l-.3 4-2.3 23-.5 6.5-13.8 1-14.5 1.3-17.5 1.3-18.8 1-18.5.8h-16.1l-6.8-.5-5.8-.5-10.8-1.5-13-2-14.3-2.8-7.5-1.8-7.3-1.8-7-2-7-2.5-6.3-2.5-6-2.8-2.8-1.5-2.5-1.8-2.3-1.5-2.3-1.8-1.8-1.8-1.8-2-1.5-2-1-2-1-2.5-1-3.3-1-3.3-.3-2-.3-2.5-.3-3.3v-3.8l1.3-8 1.5-8.8 2.3-10.8 2.5-12.8 3.3-13.3 3.5-13.5 1.8-6.5 2-6.3h.3l4-17.3 4.5-19.3 4.8-21 5.5-22 3.3-11 3-11.3 3.5-11 3.8-10.8 4-10.8 4-10.3 4.5-10 4.8-9.5 4.5-8.3 5-7.8 5-7.3 2.8-3.3 2.8-3.3 2.8-3 2.8-2.8 3-2.8 3-2.5 3.3-2.3 3.3-2 3.3-1.8 3.3-1.8 67.3-17 .5-.5 4.5 3.8 4.8 3.5 5 3 5.3 2.5 5.3 2 5.5 1.5 5.8.8 3 .3 3 .3 5-.3 5.3-.8 5-1.3 4.8-1.5 4.8-2 4.5-2.5 4.5-2.8 4-3 .8.8h5.5l5.3.3 5 .5 4.8.8 4.8.8 4.3 1 4.3 1 4.3 1.3 3.8 1.3 3.8 1.3 6.8 3 6 3.3 5.3 3.3 4.5 3.3 4 3.3 3.3 3 2.8 2.5 3.3 4 1.3 1.5 3 5 3 5.5 3 6.5 3 6.8 3.3 7.8 3 8 3 8.5 3 9 6.3 18.8 5.8 20 5.8 20 5.5 20.3 5 19.5 4.5 18.5 7.5 32 5 22 1.8 8v4l-.3 3-.3 2.8-.3 2-1 3.3-1 3.3-1 2.3-1 2.3-1.5 2-1.8 2-2 1.8-2.3 1.8-2.3 1.8-2.8 1.8-5.8 3-6.5 2.8-7 2.5-7.3 2.3-7.5 1.8-7.5 1.8-7.8 1.8-7.3 1.3-13.5 2.3-11.3 1.5-3.5.5-4 .3-9.3.3h-10.8l-11.5-.5-12-.5-12-.8-22.5-1.5-17.8-1.4z"/><path class="st1" d="M473.2 659l46.7 123.3h-295L271.4 659h4.3l.2-.2 4.8 4.2 4.7 4 4.5 3.5 4.5 3 4 2.8 3.5 2.2 3.3 1.8 2.7 1.2 3 .8 3.3.2h3.5l3.7-.5 3.5-1 1.5-.7 1.5-.8 1.5-1 1.3-1.2 1-1 1-1.5.5-1.5.2-1.8-.2-1.7-.5-2-.8-1.8-1-2.2-2.5-4 1-.8z"/><path class="st2" d="M226.2 601.3l-1.3 1-89.2-.8.5-25.7.7-27.5 1.8-55.5-.5-.8 5.7-3.7 1.8 2.5 10 16.5 6.5 10.2 4.7 7 5.3 6.8z"/><path class="st2" d="M406.4 339l-4.7 9.5-4.5 10-4 10.3-4 10.7-3.8 10.8-3.5 11-3 11.2-3.2 11-5.5 22-4.8 21-4.5 19.3-4 17.2h-.2l-2 6.3-1.8 6.5-3.5 13.5-3.2 13.2-2.5 12.8-2.3 10.7-1.5 8.8-1.2 8v3.7l.2 3.3.3 2.5.2 2 1 3.2 1 3.3 1 2.5-57.7-.5v2l-3.8-1.8-2.7-1-74.3-151-1-1.7-59 39-5.7 3.7-4.5 3-37.5-117.7 1.5-10.3 1.5-9.5 2-9 2.2-8.5 2.3-7.7 2.2-7 2.5-6.5 2.3-6 2.2-5 2.3-4.5 3.5-7 2.7-4.3.8-1.5 5.2-4.7 6-4.8 6.8-5 7.2-5 7.5-4.7 8-4.8 15.8-9 14.5-8 12.2-6.2 11.3-5.5.7-2.3 3.8 2.3 3.7 2.2 4 1.8 4.3 1.5 4.2 1 4.3 1 4.2.5 4.5.2 5.5-.5 5.5-.7 5.3-1.3 5.2-1.7 5-2.3 4.8-2.7 4.5-3.3 4.5-3.5 2.2 1 11.5 5.8 12 6.2 14.5 7.8 15.8 9 8 4.7 7.7 5 7.3 4.8 6.7 5 6 4.7 5 4.8 2.3 4 2.2 5 2.8 6.5 2.7 8 1.5 4.5 1.3 4.7 1.5 5.3 1 5.5 1 5.7z"/><path class="st3" d="M252.4 69l3.5.3 3.5.2 3.5.5 3.5.8 3.3 1 3.5 1.2 3 1.3 3.2 1.5 3 1.7 3 2 3 2 2.8 2.3 2.7 2.5 2.5 2.5 2.8 2.7 2.2 2.8 2.3 3 2.2 3 2 3.2 2 3.5 1.8 3.5 1.7 3.5 1.5 3.8 1.5 3.7 1.3 4 1 4 1 4 .7 4.3.5 4.2.5 4.3.3 4.2v10l-.5 5.3-.5 5-1 5.2-1 5-1.5 4.8-1.5 4.7-1.8 4.5-2.2 4.5-2 4.3-2.5 4-2.5 3.7-2.8 3.8-3 3.5-3 3.2-3.2 3-4.5 3.5-4.5 3.3-4.8 2.7-5 2.3-5.2 1.7-5.3 1.3-5.5.7-5.5.5-4.5-.2-4.2-.5-4.3-1-4.2-1-4.3-1.5-4-1.8-3.7-2.2-3.8-2.3-4-2.7-3.7-3.3-3.8-3.5-3.2-3.7-3.3-4-3-4.5-2.7-4.5-2.5-4.8-2.3-5-2-5-1.7-5.5-1.5-5.5-1-5.7-1-5.8-.5-6v-10.5l.2-4.2.5-4.3.5-4.2.8-4.3 1-4 1.2-4 1.3-4 1.2-3.7 1.5-3.8 1.8-3.5 1.7-3.5 2-3.5 2-3.2 2.3-3 2.2-3 2.5-2.8 2.5-2.7 2.5-2.5 2.8-2.5 2.7-2.3 3-2 3-2 3-1.7 3.3-1.5 3.2-1.3 3.3-1.2 3.2-1 3.5-.8 3.5-.5 3.5-.2zM328.4 659.8l2.5 4 1 2.2.8 1.8.5 2 .2 1.7-.2 1.8-.5 1.5-1 1.5-1 1-1.3 1.2-1.5 1-1.5.8-1.5.7-3.5 1-3.7.5h-3.5l-3.3-.2-3-.8-2.7-1.2-3.3-1.8-3.5-2.2-4-2.8-4.5-3-4.5-3.5-4.7-4-4.8-4.2-7.5-7-7.5-7.5-7-8-3.5-4-3.2-4.3-21-26.7-54-70-5.3-6.8-4.7-7-6.5-10.2-10-16.5-1.8-2.5 59-39 1 1.7 74.3 151 2.7 1 3.8 1.8 5 2.5 5.7 3.2 6.3 3.8 6.2 4 4.3 3.2 4.2 3.3 4 3.2 3.5 3.3 3.3 3.2 2.2 3 1.8 3 .5 1.5.5 1.3-.8.7-.5.5h-1.7l-1.8-.5-2-.7-2-.8-2-.5h-1.2l-1 .3-1 .5-1 .7.7 1.8 1 1.7 3 4 3.3 4.3zM551.7 599.3l17.2 1.2 22.5 1.5 12 .8 12 .5 11.5.5h10.8v7.2l-.5 2.5-.5 2.5-1 2.5-1.3 2-1.7 2-2 1.8-2.8 1.5-2.5 1-3.7 1-4.5 1-5.3.7-5.7.8-6.3.7-6.5.5-6.7.3-6.5.2h-6.5l-5.8-.2-5.5-.5-4.7-.8-3.8-1-1.7-.7-1.3-.8-1-.7-.7-1 2.2-23zM458.7 550.8l1-2.5 1-2 .7-.8.8-.7 1.7-1.3 2.8-1 3.7-.7 11-1.8 3-.2 3.3.2 3.2.3 3.5.7 7.3 1.8 7.5 2.2 7.5 2.3 7.5 1.7 3.7.5 3.5.5h7l4 42-.7 1-1 .8-1.3.7-1.5.8-4 1-4.7.7-5.5.5-5.8.3h-6.5l-6.5-.3-6.5-.5-6.7-.5-6.3-.5-5.7-.7-5.3-1-4.5-.8-3.7-1-2.5-1-2.3-1-1.7-1.5-1.5-1.2-1.3-1.8-1-1.7-.7-1.8-.5-2-.5-2-.3-3 .3-3.2.2-3.3.5-3.2 1.5-6.3 1.5-5.7zM560.7 118.8h3.5l3.5.2 3.5.5 3.5 1 3.2.8 3.3 1.2 3.2 1.3 3.3 1.7 3 1.5 3 2 2.7 2 3 2.3 2.8 2.5 2.5 2.5 2.5 2.7 2.5 2.8 2.2 3 2.3 3.2 2 3.3 2 3.2 1.7 3.5 1.5 3.5 1.8 3.8 1.2 3.7 1.3 4 1 4 1 4 .7 4.3.8 4.2.5 4.3.2 4.2v4.5l-.2 5.5-.3 5.5-.7 5.5-1 5.3-1.3 5.2-1.5 5-1.7 4.8-1.8 4.7-2.2 4.5-2.5 4.3-2.5 4.2-2.8 4-3 3.8-3.2 3.5-3.3 3.2-3.5 3-4 3-4.5 2.8-4.5 2.5-4.7 2-4.8 1.5-5 1.2-5.2.8-5 .2-3-.2-3-.3-5.8-.7-5.5-1.5-5.2-2-5.3-2.5-5-3-4.7-3.5-4.5-3.8-3-3-3-3.2-2.8-3.5-2.5-3.8-2.5-3.7-2.2-4-2-4.3-2-4.2-1.8-4.3-1.5-4.7-1.2-4.8-1-4.7-.8-5-.7-5-.3-5-.2-5.3.2-4.5.3-4.2.2-4.3.8-4.2.7-4.3 1-4 1-4 1.3-4 1.5-3.7 1.5-3.8 1.5-3.5 2-3.5 1.7-3.2 2.3-3.3 2-3.2 2.5-3 2.2-2.8 2.5-2.7 2.8-2.5 2.7-2.5 2.8-2.3 2.7-2 3-2 3.3-1.5 3-1.7 3.2-1.3 3.3-1.2 3.5-.8 3.2-1 3.5-.5 3.5-.2z"/><path class="st4" d="M406.4 339.8v-.8l-.7-6-1-5.7-1-5.5-1.5-5.3-1.3-4.7-1.5-4.5-2.7-8-2.8-6.5-2.2-5-2.3-4-5-4.8-6-4.7-6.7-5-7.3-4.8-7.7-5-8-4.7-15.8-9-14.5-7.8-12-6.2-11.5-5.8M247.2 628l-21-26.7-54-70-5.3-6.8-4.7-7-6.5-10.2-10-16.5M203.9 451l74.3 151 2.7 1 3.8 1.8 5 2.5 5.7 3.2 6.3 3.8 6.2 4 4.3 3.2 4.2 3.3 4 3.2 3.5 3.3 3.3 3.2 2.2 3 1.8 3 .5 1.5.5 1.3-.8.7-.5.5h-1.7l-1.8-.5-2-.7-2-.8-2-.5h-1.2l-1 .3-1 .5-1 .7.7 1.8 1 1.7 3 4 3.3 4.3 3.2 4.5 2.5 4 1 2.2.8 1.8.5 2 .2 1.7-.2 1.8-.5 1.5-1 1.5-1 1-1.3 1.2-1.5 1-1.5.8-1.5.7-3.5 1-3.7.5h-3.5l-3.3-.2-3-.8-2.7-1.2-3.3-1.8-3.5-2.2-4-2.8-4.5-3-4.5-3.5-4.7-4-4.8-4.2-7.5-7-7.5-7.5-7-8-3.5-4-3.2-4.3M224.9 602.3l-89.2-.8.5-25.7.7-27.5 1.8-55.5"/><path class="st4" d="M344.7 603.3h-2.3l-57.7-.5h-.3M354.9 510.8l2-7.8 4-17.2 4.5-19.3 4.8-21 5.5-22 3.2-11 3-11.2 3.5-11 3.8-10.8 4-10.7 4-10.3 4.5-10 4.7-9.5 4.5-8.2 5-7.8 5-7.2 2.8-3.3 2.7-3.2 2.8-3 2.7-2.8 3-2.7 3-2.5 3.3-2.3 3.2-2 3.3-1.7 3.2-1.8 67.3-17M732.2 486l-194.3 60.3.5 3.7 4 42 .5 6.3 8.8 1 17.2 1.2 22.5 1.5 12 .8 12 .5 11.5.5h10.8l9.2-.3 4-.2 3.5-.5 11.3-1.5 13.5-2.3 7.2-1.2 7.8-1.8 7.5-1.7 7.5-1.8 7.2-2.2 7-2.5 6.5-2.8 5.8-3 2.7-1.7 2.3-1.8 2.2-1.7 2-1.8 1.8-2 1.5-2 1-2.2 1-2.3 1-3.2 1-3.3.2-2 .3-2.7.2-3v-4l-1.7-8-5-22-7.5-32-4.5-18.5-5-19.5-5.5-20.3-5.8-20-5.7-20-6.3-18.7-3-9-3-8.5-3-8-3.2-7.8-3-6.7-3-6.5-3-5.5-3-5-1.3-1.5-3.2-4-2.8-2.5-3.2-3-4-3.3-4.5-3.2-5.3-3.3-6-3.2-6.7-3-3.8-1.3-3.7-1.2-4.3-1.3-4.2-1-4.3-1-4.7-.7-4.8-.8-5-.5-5.2-.2h-5.5"/><path class="st4" d="M457.9 553.8l-1.5 5.7-1.5 6.3-.5 3.2-.2 3.3-.3 3.2.3 3 .5 2 .5 2 .7 1.8 1 1.7 1.3 1.8 1.5 1.2 1.7 1.5 2.3 1 2.5 1 3.7 1 4.5.8 5.3 1 5.7.7 6.3.5 6.7.5 6.5.5 6.5.3h6.5l5.8-.3 5.5-.5 4.7-.7 4-1 1.5-.8 1.3-.7 1-.8.7-1M542.4 549l-2 .5-2 .5h-7l-3.5-.5-3.7-.5-7.5-1.7-7.5-2.3-7.5-2.2-7.3-1.8-3.5-.7-3.2-.3-3.3-.2-3 .2-11 1.8-3.7.7-2.8 1-1.7 1.3-.8.7-.7.8-1 2-1 2.5-.8 3"/><path class="st4" d="M459.7 551l-1-.2-3-1.3-1.5-.2h-2.8l-1.2.5-1.3.7-1.2 1-1 1.3-1 1.7-1 2-.5 2.5-.5 1.5v3l.2 1.3.8 2.7 1.2 2.3 1.8 2.5 2 2 4.2 4.2"/><path class="st4" d="M551.4 603.3l-2.2 23-.5 6.5-13.8 1-14.5 1.2-17.5 1.3-18.7 1-18.5.7h-16l-6.8-.5-5.7-.5-10.8-1.5-13-2-14.2-2.7-7.5-1.8-7.3-1.7-7-2-7-2.5-6.2-2.5-6-2.8-2.8-1.5-2.5-1.7-2.2-1.5-2.3-1.8-1.7-1.7-1.8-2-1.5-2-1-2-1-2.5-1-3.3-1-3.2-.2-2-.3-2.5-.2-3.3v-3.7l1.2-8 1.5-8.8 2.3-10.7 2.5-12.8 3.2-13.2 3.5-13.5 1.8-6.5 2-6.3"/><path class="st4" d="M359.4 520.3l93.5 29 3 1M637.7 608.3v2.7l-.5 2.5-.5 2.5-1 2.5-1.3 2-1.7 2-2 1.8-2.8 1.5-2.5 1-3.7 1-4.5 1-5.3.7-5.7.8-6.3.7-6.5.5-6.7.3-6.5.2h-6.5l-5.8-.2-5.5-.5-4.7-.8-3.8-1-1.7-.7-1.3-.8-1-.7-.7-1M219.4 230.5l-4-2.7-3.7-3.3-3.8-3.5-3.2-3.7-3.3-4-3-4.5-2.7-4.5-2.5-4.8-2.3-5-2-5-1.7-5.5-1.5-5.5-1-5.7-1-5.8-.5-6v-10.5l.2-4.2.5-4.3.5-4.2.8-4.3 1-4 1.2-4 1.3-4 1.2-3.7 1.5-3.8 1.8-3.5 1.7-3.5 2-3.5 2-3.2 2.3-3 2.2-3 2.5-2.8 2.5-2.7 2.5-2.5 2.8-2.5 2.7-2.3 3-2 3-2 3-1.7 3.3-1.5 3.2-1.3 3.3-1.2 3.2-1 3.5-.8 3.5-.5 3.5-.2 3.5-.3 3.5.3 3.5.2 3.5.5 3.5.8 3.3 1 3.5 1.2 3 1.3 3.2 1.5 3 1.7 3 2 3 2 2.8 2.3 2.7 2.5 2.5 2.5 2.8 2.7 2.2 2.8 2.3 3 2.2 3 2 3.2 2 3.5 1.8 3.5 1.7 3.5 1.5 3.8 1.5 3.7 1.3 4 1 4 1 4 .7 4.3.5 4.2.5 4.3.3 4.2v10l-.5 5.3-.5 5-1 5.2-1 5-1.5 4.8-1.5 4.7-1.8 4.5-2.2 4.5-2 4.3-2.5 4-2.5 3.7-2.8 3.8-3 3.5-3 3.2-3.2 3-4.5 3.5-4.5 3.3-4.8 2.7-5 2.3-5.2 1.7-5.3 1.3-5.5.7-5.5.5-4.5-.2-4.2-.5-4.3-1-4.2-1-4.3-1.5-4-1.8-3.7-2.2zM518.7 273l-3-3-3-3.2-2.8-3.5-2.5-3.8-2.5-3.7-2.2-4-2-4.3-2-4.2-1.8-4.3-1.5-4.7-1.2-4.8-1-4.7-.8-5-.7-5-.3-5-.2-5.3.2-4.5.3-4.2.2-4.3.8-4.2.7-4.3 1-4 1-4 1.3-4 1.5-3.7 1.5-3.8 1.5-3.5 2-3.5 1.7-3.2 2.3-3.3 2-3.2 2.5-3 2.2-2.8 2.5-2.7 2.8-2.5 2.7-2.5 2.8-2.3 2.7-2 3-2 3.3-1.5 3-1.7 3.2-1.3 3.3-1.2 3.5-.8 3.2-1 3.5-.5 3.5-.2h7.3l3.5.2 3.5.5 3.5 1 3.2.8 3.3 1.2 3.2 1.3 3.3 1.7 3 1.5 3 2 2.7 2 3 2.3 2.8 2.5 2.5 2.5 2.5 2.7 2.5 2.8 2.2 3 2.3 3.2 2 3.3 2 3.2 1.7 3.5 1.5 3.5 1.8 3.8 1.2 3.7 1.3 4 1 4 1 4 .7 4.3.8 4.2.5 4.3.2 4.2v4.5l-.2 5.5-.3 5.5-.7 5.5-1 5.3-1.3 5.2-1.5 5-1.7 4.8-1.8 4.7-2.2 4.5-2.5 4.3-2.5 4.2-2.8 4-3 3.8-3.2 3.5-3.3 3.2-3.5 3-4 3-4.5 2.8-4.5 2.5-4.7 2-4.8 1.5-5 1.2-5.2.8-5 .2-3-.2-3-.3-5.8-.7-5.5-1.5-5.2-2-5.3-2.5-5-3-4.7-3.5zM329.4 659h143.8l46.7 123.3h-295L271.4 659h4.3M174.4 360.8l34 84.7-5.5 3.8-59 39-5.7 3.7-4.5 3-37.5-117.7 1.5-10.3 1.5-9.5 2-9 2.2-8.5 2.3-7.7 2.2-7 2.5-6.5 2.3-6 2.2-5 2.3-4.5 3.5-7 2.7-4.3.8-1.5 5.2-4.7 6-4.8 6.8-5 7.2-5 7.5-4.7 8-4.8 15.8-9 14.5-8 12.2-6.2 11.3-5.5M370.2 339.8v105.7"/></svg><svg x="485" y="176" width="112" height="113" viewBox="59.765625 175.3125 726.484375 500.703125" preserveAspectRatio="xMidYMid meet"><style>.st0{fill:#ffeec8}.st1{fill:#fff}.st2{fill:#a9d7f3}.st3{fill:#231f20}.st4{fill:#ee947d}.st5,.st6,.st7,.st8{fill:none;stroke:#231f20;stroke-width:14;stroke-linecap:round;stroke-miterlimit:10}.st6,.st7,.st8{stroke-width:6.25}.st7,.st8{stroke-width:21}.st8{stroke-width:3.25}</style><path class="st0" d="M592.7 285.5L584 287l-9 2-5 1.5-5.3 1.5-5 1.8-5.2 2-5 2.2-5 2.3-5 2.5-4.8 2.7-5 3-4.5 3-4.5 3.5-4.5 3.5-4.2 3.8-4 4-4 4.2-3.8 4.5-3.5-.2 3.3-84.5 5.2-4 6-4.5 8.5-5.8 5-3 5.3-3.2 6-3.3 6.5-3.2 6.7-3.3 7.3-3.2 7.5-3.3 8-2.7 9.7-3.3 9.8-2.5 9.5-2 9.2-1.5 9.3-1.2 9-.5 8.7-.3h8.8l8.5.5 8.2.8 8 1.2 7.8 1.3 7.5 1.5 7.2 1.7 7 1.8 6.8 2.2 6.2 2 6 2.3 5.8 2.2 5.5 2.3 9.5 4.5 8.2 4.2 6.5 3.8 4.8 2.7 4 2.8-32.8 85.5-3.5-2.5-4.7-3-5.8-3.5-6.5-3.8-9-4.7-10-4.5-5.2-2.3-5.3-2-5.7-2-5.8-2-10.2-2.7-5.5-1.3-5.5-1.2-9.8-1.5-5-.8-5-.5-8.2-.2-8.5-.3-1.8.3-8.5.5z"/><path class="st0" d="M703.2 340.3L698 337l-5.8-3.5 1-.5 1.3-.5 2.2-2 2.5-2.5 2.3-3 2.5-3.5 2.2-3.7 4-7.8 6.5 3.8 5.8 3.5 4.7 3 3.5 2.5-11.2 29.5-4.3-3.5-5-3.8z"/><path class="st0" d="M710.2 310l-4 7.8-2.2 3.7-2.5 3.5-2.3 3-2.5 2.5-2.2 2-1.3.5-1 .5-8.5-4.7-9.5-4.8 1-.7 1-.5 2.3-2 2.2-2.5 2.3-3.3 2.2-3.2 2-3.5 4-7.5 10 4.5z"/><path class="st1" d="M537.2 382.5l-5.7-2.7-4.8-2.8-4.2-3.2-3.8-3-3-3.3-2.7-3-2-3.2-1.5-3-1.3-3-1-2.8-.7-2.5-.3-2.5-.2-4V341l6.2-4.5 7.3-4.5 8.2-4.5 9.3-4.7 4.5-2.3 4.5-2 8.5-3.2 8.5-2.8 7.7-2 9-1.7-3.2 3.2-2.8 3.3-2.5 3.7-2 4-1.7 4.3-1.3 4.2-.7 4.5-.3 4.8.3 4.5.7 4.2 1 4.3 1.5 3.7 1.8 3.8 2.2 3.7 2.5 3.3 2.8 3 3 2.7 3.5 2.5 3.5 2.3 3.7 1.7 4 1.5 4.3 1 4.2.8 4.5.2 4.5-.2 4.3-.8 4-1 4-1.5 4-1.7 3.5-2.3 3.2-2.5 3.3-2.7 2.7-3 2.5-3.3 2-3.7 2-3.8 1.5-3.7 1-4.3.8-4.2V337l-.8-3.7-1-4-1.2-3.8-1.5-3.7-1.8-3.5-2-3.3-2-3 7 2 6.8 2.3 9.7 3.7 9 4 9.5 4.8 8.5 4.7 5.8 3.5 5.2 3.3v2l-.2 3-1 4.2-1.5 5.3-1 2.7-1.3 3.3-1.7 3-1.8 3.2-2.2 3.5-2.5 3.3-3 3.5-3.3 3.5-3.5 3.2-3.5 3-3.2 2.3-3.5 2.2-3.3 2-3.5 1.8-4 1.7-4 1.8-4.2 1.2-4 1.3-4.3 1-4.2 1-4 .5-4.3.5-4.2.2-4 .3h-8l-7.8-.8-7.2-1-8.8-1.5-8.5-2.2-8.5-2.5-8-2.8-7.5-3-7.5-3z"/><path class="st0" d="M691.2 300.8l-4 7.5-2 3.5-2.2 3.2-2.3 3.3-2.2 2.5-2.3 2-1 .5-1 .7-9-4-9.7-3.7 2-1.8 1.7-2.2 2-2.8 1.8-3 1.7-3.2 1.5-3.5 3-7.3 5.8 2 5.7 2 5.3 2z"/><path class="st0" d="M641.7 312l-3.7-1 1.7-1.5 1.5-2 1.3-2.7 1.5-3 1-3.3 1.2-3.7 1.8-7.5 5.5 1.2 5.5 1.3 10.2 2.7-3 7.3-1.5 3.5-1.7 3.2-1.8 3-2 2.8-1.7 2.2-2 1.8-6.8-2.3z"/><path class="st2" d="M638 311l3.8 1 2 3 2 3.3 1.8 3.5 1.5 3.8 1.3 3.8 1 4 .8 3.8v8.3l-.8 4.3-1 4.3-1.5 3.8-2 3.8-2 3.8-2.5 3.3-2.8 3-3.3 2.8-3.3 2.5-3.5 2.3-4 1.8-4 1.5-4 1-4.3.8-4.5.3-4.5-.3-4.2-1.5-4.3-1-4-1.5-3.8-1.8-3.5-2.3-3.4-2.4-3-2.8-2.8-3-2.5-3.3-2.3-3.8-1.8-3.8-1.5-3.8-1-4.3-.8-4.3-.3-4.5.3-4.8.8-4.5 1.3-4.3 1.8-4.3 2-4 2.5-3.8 2.8-3.3 3.3-3.3 8.8-1.3 5-.3 4.5-.3h10.8l1.5.3 5.5.3 5.8.8 8.3 1.3 8 2.1zm-18.5 30.8l-.3-2-.8-2.3-1-1.8-1.3-1.8-1.8-1.3-1.8-1-2.3-.8-2.3-.3-1.9.5-2 .8-1.8 1-1.8 1.3-1.3 1.8-1.3 1.8-.5 2.3-.3 2 .3 2.3.5 2.3 1.3 1.8 1.3 1.8 1.8 1.3 1.8 1 2 .8 2.3.3 2.3-.3 2.3-.8 1.8-1 1.8-1.3 1.3-1.8 1-1.8.8-2.3-.1-2.5z"/><path class="st0" d="M648 287.3l-1.8 7.5-1.2 3.7-1 3.3-1.5 3-1.3 2.7-1.5 2-1.7 1.5-8.3-1.5-8.2-1.2v-.8l1-.5.7-.7.8-1 .5-1 1.2-2.5.8-3 .7-3.3.5-3.7.5-7.3 5 .5 5 .8z"/><path class="st0" d="M628.2 284.5l-.5 7.3-.5 3.7-.7 3.3-.8 3-1.2 2.5-.5 1-.8 1-.7.7-1 .5v.8l-5.8-.8-5.5-.2-1.5-.3H605v-.2l1-.5.7-.8.8-.7.5-1 1.2-2.5.8-3 .7-3.5.3-3.5.5-7.3 8.5.3z"/><path class="st3" d="M608.2 330.8l2.3.2 2.2.8 1.8 1 1.7 1.2 1.3 1.8 1 1.7.7 2.3.3 2-.3 2.2-.7 2.3-1 1.7-1.3 1.8-1.7 1.2-1.8 1-2.2.8-2.3.2-2.2-.2-2-.8-1.8-1-1.7-1.2-1.3-1.8-1.2-1.7-.5-2.3-.3-2.2.3-2 .5-2.3 1.2-1.7 1.3-1.8 1.7-1.2 1.8-1 2-.8z"/><path class="st0" d="M609.7 284.3l1.8-.3-.5 7.3-.3 3.5-.7 3.5-.8 3-1.2 2.5-.5 1-.8.7-.7.8-1 .5v.2h-7l-4.5.3-5 .2.7-.5.8-.7.5-.8.5-1 .7-2.5.8-2.7.2-3.3.3-3.5-.3-7 8.5-.7z"/><path class="st0" d="M579.7 308.8l-9 1.7v-1.7l.8-.3.5-.7 1.2-1.8.8-2 .5-2.5.5-3 .2-3-.2-6.5 9-2 8.7-1.5.3 7-.3 3.5-.2 3.3-.8 2.7-.7 2.5-.5 1-.5.8-.8.7-.7.5z"/><path class="st0" d="M506 341l-5 4-4 3.8-.8-1.3.5-12.7 3.5.2 3.8-4.5 4-4.2 4-4 4.2-3.8 4.5-3.5 4.5-3.5 4.5-3 5-3 4.8-2.7 5-2.5 5-2.3 5-2.2 5.2-2 5-1.8 5.3-1.5 5-1.5.2 6.5-.2 3-.5 3-.5 2.5-.8 2-1.2 1.8-.5.7-.8.3v1.7l-7.7 2-8.5 2.8-8.5 3.2-4.5 2-4.5 2.3-9.3 4.7-8.2 4.5-7.3 4.5z"/><path class="st4" d="M537.2 382.5l-9.5-3.7-4-1.5-3.2-1-2.5-.8-2.5-.2-4.5-.3h-7.8l-3.5-.5-1.5-.2-1.7-.8-1.3-.7-1.5-1-1.2-1.5-1.3-1.8-1-2-.7-2.2V362l.5-2.5 1-2.5 1.5-2.5 2-2.7 2.5-3 4-3.8 5-4v2.5l.2 4 .3 2.5.7 2.5 1 2.8 1.3 3 1.5 3 2 3.2 2.7 3 3 3.3 3.8 3 4.2 3.2 4.8 2.8zM348.2 347l3.3 3.3 2.7 3.2 2 3 1.3 2.8.7 2.7.3 1.5v1.3l-.3 1.2-.2 1-1.3 2.3-1.2 2-1.3 1.2-1.5 1.3-1.2.7-1.8.5-1.5.5-3.5.3H337l-4.5.5-2.5.2-2.5.5-3.3 1-4 1.5-9.5 4 5.5-2.7 5-3 4.3-3 3.7-3 3-3.3 2.5-3.2 2.3-3 1.5-3 1.2-3 1-2.8.8-2.7.2-2.3.3-4v-2.7l3.2 2.7z"/><path class="st0" d="M342 341.8l-6.3-4.3-7.2-4.5-8.3-4.7-9.2-4.8-4.5-2.2-4.8-1.8-8.7-3.5-8.5-2.7-8-2 .5-1.8-.8-.5-.5-.5-1-1.7-.7-2.3-.8-2.5-.2-2.7-.3-3V290l5.3 1.5 5.2 1.5 5 1.8 5.3 2 5 2 5 2.5 5 2.5 4.7 2.7 4.8 3 4.7 3 4.5 3.5 4.5 3.5 4.3 3.8 4 4 4 4.2 3.7 4.3h.3l.2 11.2-3-2.5z"/><path class="st0" d="M272.7 290l-8.7-2-8.8-1.5-8.5-1-8.5-.5H228l-8.3.5-5 .5-5 .5-9.7 1.8-5.5 1-5.5 1.2-10.3 3-5.7 2-5.8 2-5.5 2-5 2.3-10.2 4.5-8.8 4.7-6 3.3-5.2 3.2-8.3 5.3L84.5 238l4-2.5 4.7-3 6.5-3.5 8.3-4.2 9.5-4.5 5.5-2.3 5.7-2.2 6-2.3 6.3-2.2 6.7-2 7-2 7.3-1.5 7.5-1.8 7.7-1.2 8-1 8.3-.8 8.5-.5 8.5-.2 9 .2 9 .8 9.2 1 9.3 1.7 9.5 2 9.7 2.5 9.8 3 6.7 2.5 6.8 2.8 6.2 2.7 6 2.8 5.8 2.7 5.5 3 9.7 5.5 8.3 5.3 6.7 4.7 5.3 3.8 3.2 2.5 1.8 86h-.3l-3.7-4.3-4-4.2-4-4-4.3-3.8-4.5-3.5-4.5-3.5-4.7-3-4.8-3-4.7-2.7-5-2.5-5-2.5-5-2-5.3-2-5-1.8-5.2-1.5z"/><path class="st1" d="M310.7 383.5l-13 5.5-7.5 3-7.5 2.8-8.2 2.7-8.3 2.5-8.5 2.3-8.7 1.7-7.3 1-7.7.5-8 .3-4.3-.3-4-.2-4.2-.5-4-.8-4.3-.7-4.2-1-4-1.3-4.3-1.5-4-1.5-4-2-3.5-1.7-3.5-2-3.2-2-3.3-2.5-3.5-2.8-3.5-3.2-3.2-3.5-3-3.5-2.5-3.5-2.3-3.3-1.7-3.2-1.8-3.3-1.2-3-1-2.7-1.5-5.3-1-4.2-.3-3.3v-1.7l5-3.5 6-3.5 8.5-4.8 9.5-4.7 9-4 9.8-3.5 6.7-2.3 7-2-2 3-2 3.3-1.7 3.5-1.8 3.7-1.2 3.8-.8 3.7-.7 4-.3 3.8.3 4.5.7 4.2 1 4 1.5 4 1.8 3.8 2.2 3.5 2.5 3.5 2.8 3 3.2 2.7 3.3 2.5 3.5 2 4 2 3.7 1.3 4.3 1.2 4.2.5 4.5.3 4.5-.3 4.3-.5 4.2-1.2 4-1.3 3.8-2 3.5-2 3.5-2.5 3-2.7 2.7-3 2.5-3.5 2.3-3.5 1.7-3.8 1.5-4 1-4 .8-4.2.2-4.5-.2-4.8-.8-4.5-1.2-4.5-1.8-4-2-4-2.5-3.7-2.7-3.5-3.3-3 8.3 1.5 8 2 8.5 2.7 8.7 3.5 4.8 1.8 4.5 2.2 9.2 4.8 8.3 4.7 7.2 4.5 6.3 4.3v2.7l-.3 4-.2 2.3-.8 2.7-1 2.8-1.2 3-1.5 3-2.3 3-2.5 3.2-3 3.3-3.7 3-4.3 3-5 3z"/><path class="st2" d="M210 312l8-1.8 8.5-1.3 5.5-.5 5.8-.3 1.5-.3 3.8-.3h7l4.5.3 5 .5 8.8 1.3 3.3 3 2.8 3.5 2.5 3.8 2 4 1.8 4 1.3 4.5.8 4.5.3 4.8-.3 4.5-.8 4.3-1 4-1.5 4-1.8 3.8-2.3 3.5-2.5 3.5-2.8 3-3 2.8-3.5 2.5-3.5 2-3.8 2-4 1.3-4.4 1.1-4.3.5-4.5.3-4.5-.3-4.3-.5-4.3-1.3-3.8-1.3-4-2-3.5-2-3.3-2.5-3.3-2.8-2.8-3-2.5-3.5-2.3-3.5-1.8-3.8-1.5-4-1-4-.8-4.3-.3-4.5.3-3.8.8-4 .8-3.8 1.3-3.8 1.8-3.8 1.8-3.5 2-3.3 2-3 4-.5zm40.7 30.8l-.3-2.3-.8-2-1-2-1.3-1.5-1.8-1.5-1.8-1-2.3-.5-2-.3-2.3.3-2.3.5-1.8 1-1.8 1.5-1.3 1.5-1 2-.8 2-.3 2.3.3 2.3.8 2 1 2 1.3 1.8 1.8 1.3 1.8 1 2.3.8 2.3.3 2-.3 2.3-.8 1.8-1 1.8-1.3 1.3-1.8 1-2 .8-2 .3-2.3z"/><path class="st0" d="M268.2 309.8l-8.7-1.3-.8-.5-.7-.7-.5-1-.5-1-1-2.3-.5-3-.3-3.2-.2-3.3.2-7 8.8 1.5 8.7 2v6.3l.3 3 .2 2.7.8 2.5.7 2.3 1 1.7.5.5.8.5-.5 1.8z"/><path class="st0" d="M259.5 308.5l-5-.5-4.5-.2h-7l-1-.5-.8-.8-.7-.7-.5-1.3-1.3-2.5-.7-3-.8-3.2-.5-3.5-.2-7.3h1.7l8.5.5 8.5 1-.2 7 .2 3.3.3 3.2.5 3 1 2.3.5 1 .5 1 .7.7z"/><path class="st3" d="M239.7 331.8l2 .2 2.3.5 1.7 1 1.8 1.5 1.2 1.5 1 2 .8 2 .2 2.3-.2 2.2-.8 2-1 2-1.2 1.8-1.8 1.2-1.7 1-2.3.8-2 .2-2.2-.2-2.3-.8-1.7-1-1.8-1.2-1.2-1.8-1-2-.8-2-.2-2.2.2-2.3.8-2 1-2 1.2-1.5 1.8-1.5 1.7-1 2.3-.5z"/><path class="st0" d="M243 307.8l-3.8.2-1.5.3-5.7.2-5.5.5v-.7l-1-.5-.8-.5-.7-1-.8-1-1-2.5-.7-3-.8-3.5-.5-3.5-.5-7.3 8.3-.5h8.5l.2 7.3.5 3.5.8 3.2.7 3 1.3 2.5.5 1.3.7.7.8.8z"/><path class="st0" d="M226.5 308.3v.7l-8.5 1.3-8 1.7-1.8-1.5-1.5-2.2-1.5-2.5-1.2-3-1-3.5-1.3-3.5-1.7-7.5 9.7-1.8 5-.5 5-.5.5 7.3.5 3.5.8 3.5.7 3 1 2.5.8 1 .7 1 .8.5z"/><path class="st0" d="M206.2 313l-7 2-6.7 2.3-2-1.8-1.8-2.2-2-2.8-1.7-3-1.8-3.5-1.5-3.5-3-7 10.3-3 5.5-1.2 5.5-1 1.7 7.5 1.3 3.5 1 3.5 1.2 3 1.5 2.5 1.5 2.2 1.8 1.5z"/><path class="st0" d="M178.7 293.5l3 7 1.5 3.5 1.8 3.5 1.7 3 2 2.8 1.8 2.2 2 1.8-9.8 3.5-9 4-1-.5-1-.8-2.2-2-2.3-2.5-2.2-3-2.3-3.2-2.2-3.8-3.8-7.2 5-2.3 5.5-2 5.8-2z"/><path class="st0" d="M173.7 324.8l-9.5 4.7-8.5 4.8-1.2-.3-1-.7-2.3-1.8-2.5-2.5-2.2-3-2.5-3.5-2.3-3.7-4-7.8 8.8-4.7 10.2-4.5 3.8 7.2 2.2 3.8 2.3 3.2 2.2 3 2.3 2.5 2.2 2 1 .8z"/><path class="st0" d="M144.7 341.3l-8.5 6-5.5 4-2.5-3.8-10-24.7 8.3-5.3 5.2-3.2 6-3.3 4 7.8 2.3 3.7 2.5 3.5 2.2 3 2.5 2.5 2.3 1.8 1 .7 1.2.3-6 3.5z"/><path class="st5" d="M267.5 309l.7.8 3.3 3 2.7 3.5 2.5 3.7 2 4 1.8 4 1.2 4.5.8 4.5.2 4.8-.2 4.5-.8 4.2-1 4-1.5 4-1.7 3.8-2.3 3.5-2.5 3.5-2.7 3-3 2.7-3.5 2.5-3.5 2-3.8 2-4 1.3-4.2 1.2-4.3.5-4.5.3-4.5-.3-4.2-.5-4.3-1.2-3.7-1.3-4-2-3.5-2-3.3-2.5-3.2-2.7-2.8-3-2.5-3.5-2.2-3.5-1.8-3.8-1.5-4-1-4-.7-4.2-.3-4.5.3-3.8.7-4 .8-3.7 1.2-3.8 1.8-3.7 1.7-3.5 2-3.3 2-3 1.5-1.7"/><path class="st6" d="M250.7 342.8l-.2 2.2-.8 2-1 2-1.2 1.8-1.8 1.2-1.7 1-2.3.8-2 .2-2.2-.2-2.3-.8-1.7-1-1.8-1.2-1.2-1.8-1-2-.8-2-.2-2.2.2-2.3.8-2 1-2 1.2-1.5 1.8-1.5 1.7-1 2.3-.5 2.2-.2 2 .2 2.3.5 1.7 1 1.8 1.5 1.2 1.5 1 2 .8 2z"/><path class="st5" d="M128.5 353.3l2.2-2 5.5-4 8.5-6 5-3.5 6-3.5 8.5-4.8 9.5-4.7 9-4 9.8-3.5 6.7-2.3 7-2 3.8-1 8-1.7 8.5-1.3 5.5-.5 5.7-.2 1.5-.3 3.8-.2h7l4.5.2 5 .5 8.7 1.3 8.3 1.5 8 2 8.5 2.7 8.7 3.5 4.8 1.8 4.5 2.2 9.2 4.8 8.3 4.7 7.2 4.5 6.3 4.3 3.2 2.7 3 2.5 3.3 3.3 2.7 3.2 2 3 1.3 2.8.7 2.7.3 1.5v1.3l-.3 1.2-.2 1-1.3 2.3-1.2 2-1.3 1.2-1.5 1.3-1.2.7-1.8.5-1.5.5-3.5.3H337l-4.5.5-2.5.2-2.5.5-3.3 1-4 1.5-9.5 4-13 5.5-7.5 3-7.5 2.8-8.2 2.7-8.3 2.5-8.5 2.3-8.7 1.7-7.3 1-7.7.5-8 .3-4.3-.3-4-.2-4.2-.5-4-.8-4.3-.7-4.2-1-4-1.3-4.3-1.5-4-1.5-4-2-3.5-1.7-3.5-2-3.2-2-3.3-2.5-3.5-2.8-3.5-3.2-3.2-3.5-3-3.5-2.5-3.5-2.3-3.3-1.7-3.2-1.8-3.3-1.2-3-1-2.7-1.5-5.3-1-4.2-.3-3.3v-2.2"/><path class="st5" d="M341.7 340.8l.3 1v2.7l-.3 4-.2 2.3-.8 2.7-1 2.8-1.2 3-1.5 3-2.3 3-2.5 3.2-3 3.3-3.7 3-4.3 3-5 3-5.5 2.7-1.5.5M113 326.5l1.5-1 3.7-2.7 8.3-5.3 5.2-3.2 6-3.3 8.8-4.7 10.2-4.5 5-2.3 5.5-2 5.8-2 5.7-2 10.3-3 5.5-1.2 5.5-1 9.7-1.8 5-.5 5-.5 8.3-.5h10.2l8.5.5 8.5 1 8.8 1.5 8.7 2 5.3 1.5 5.2 1.5 5 1.8 5.3 2 5 2 5 2.5 5 2.5 4.7 2.7 4.8 3 4.7 3 4.5 3.5 4.5 3.5 4.3 3.8 4 4 4 4.2 3.7 4.3"/><path class="st7" d="M84.5 238l4-2.5 4.7-3 6.5-3.5 8.3-4.2 9.5-4.5 5.5-2.3 5.7-2.2 6-2.3 6.3-2.2 6.7-2 7-2 7.3-1.5 7.5-1.8 7.7-1.2 8-1 8.3-.8 8.5-.5 8.5-.2 9 .2 9 .8 9.2 1 9.3 1.7 9.5 2 9.7 2.5 9.8 3 6.7 2.5 6.8 2.8 6.2 2.7 6 2.8 5.8 2.7 5.5 3 9.7 5.5 8.3 5.3 6.7 4.7 5.3 3.8 3.2 2.5 1.8 1.5"/><path class="st8" d="M130.7 295.3l1.8 4.7 2.2 5 3 6 4 7.8 2.3 3.7 2.5 3.5 2.2 3 2.5 2.5 2.3 1.8 1 .7 1.2.3 1 .2M149.7 286l1.8 4.8 2.2 5 3 6 3.8 7.2 2.2 3.8 2.3 3.2 2.2 3 2.3 2.5 2.2 2 1 .8 1 .5 1 .2 1 .3M173 277.3l1.7 4.7 1.8 5.3 2.2 6.2 3 7 1.5 3.5 1.8 3.5 1.7 3 2 2.8 1.8 2.2 2 1.8 1.5 1 1.7.2M196.7 268l.8 6.3 1 6.5 1.5 7.5 1.7 7.5 1.3 3.5 1 3.5 1.2 3 1.5 2.5 1.5 2.2 1.8 1.5.7.5.8.3M220 272.5l-.3 3.8v9.2l.5 7.3.5 3.5.8 3.5.7 3 1 2.5.8 1 .7 1 .8.5 1 .5M236.5 271.8v4l-.3 4.2.3 5 .2 7.3.5 3.5.8 3.2.7 3 1.3 2.5.5 1.3.7.7.8.8 1 .5M256.7 272.3l-.5 4.2-.5 4.5-.5 5.5-.2 7 .2 3.3.3 3.2.5 3 1 2.3.5 1 .5 1 .7.7.8.5M274.5 273.5l-.8 5-.5 5.3-.5 6.2v6.3l.3 3 .2 2.7.8 2.5.7 2.3 1 1.7.5.5.8.5.2.3M160.5 378.5l-2 .8-2 1-2.3 1.2-2.5 1.5-2.2 1.8-2.3 2.2-.7 1.3-.8 1.2M171.7 387.5l-.5.3-2.2 2-1.5 1.5-1.8 1.7-1.5 2.3-1.5 2-1 2.5-.5 2.5M185.2 395.5l-.5.5-1.7 2.8-1.3 1.7-1 2.3-1 2.2-.7 2.5-.5 2.5v2.5"/><path class="st5" d="M580.5 308l-.8.8-3.2 3.2-2.8 3.3-2.5 3.7-2 4-1.7 4.3-1.3 4.2-.7 4.5-.3 4.8.3 4.5.7 4.2 1 4.3 1.5 3.7 1.8 3.8 2.2 3.7 2.5 3.3 2.8 3 3 2.7 3.5 2.5 3.5 2.3 3.7 1.7 4 1.5 4.3 1 4.2.8 4.5.2 4.5-.2 4.3-.8 4-1 4-1.5 4-1.7 3.5-2.3 3.2-2.5 3.3-2.7 2.7-3 2.5-3.3 2-3.7 2-3.8 1.5-3.7 1-4.3.8-4.2V337l-.8-3.7-1-4-1.2-3.8-1.5-3.7-1.8-3.5-2-3.3-2-3-1.5-1.5"/><path class="st6" d="M597.2 341.8l.3 2.2.5 2.3 1.2 1.7 1.3 1.8 1.7 1.2 1.8 1 2 .8 2.2.2 2.3-.2 2.2-.8 1.8-1 1.7-1.2 1.3-1.8 1-1.7.7-2.3.3-2.2-.3-2-.7-2.3-1-1.7-1.3-1.8-1.7-1.2-1.8-1-2.2-.8-2.3-.2-2.2.2-2 .8-1.8 1-1.7 1.2-1.3 1.8-1.2 1.7-.5 2.3z"/><path class="st5" d="M719.5 352.3l-4.3-3.5-5-3.8-7-4.7-5.2-3.3-5.8-3.5-8.5-4.7-9.5-4.8-9-4-9.7-3.7-6.8-2.3-7-2-3.7-1-8.3-1.5-8.2-1.2-5.8-.8-5.5-.2-1.5-.3H598l-4.5.3-5 .2-8.8 1.3-9 1.7-7.7 2-8.5 2.8-8.5 3.2-4.5 2-4.5 2.3-9.3 4.7-8.2 4.5-7.3 4.5-6.2 4.5-5 4-4 3.8-2.5 3-2 2.7-1.5 2.5-1 2.5-.5 2.5v2.3l.7 2.2 1 2 1.3 1.8 1.2 1.5 1.5 1 1.3.7 1.7.8 1.5.2 3.5.5h7.8l4.5.3 2.5.2 2.5.8 3.2 1 4 1.5 9.5 3.7 13 5.5 7.5 3 7.5 3 8 2.8 8.5 2.5 8.5 2.2 8.8 1.5 7.2 1 7.8.8h8l4-.3 4.2-.2 4.3-.5 4-.5 4.2-1 4.3-1 4-1.3 4.2-1.2 4-1.8 4-1.7 3.5-1.8 3.3-2 3.5-2.2 3.2-2.3 3.5-3 3.5-3.2 3.3-3.5 3-3.5 2.5-3.3 2.2-3.5 1.8-3.2 1.7-3 1.3-3.3 1-2.7 1.5-5.3 1-4.2.2-3V340"/><path class="st5" d="M506.2 340l-.2 1v2.5l.2 4 .3 2.5.7 2.5 1 2.8 1.3 3 1.5 3 2 3.2 2.7 3 3 3.3 3.8 3 4.2 3.2 4.8 2.8 5.7 2.7 1.5.5M735 325.8l-4.3-3-3.5-2.5-4.7-3-5.8-3.5-6.5-3.8-9-4.7-10-4.5-5.2-2.3-5.3-2-5.7-2-5.8-2-10.2-2.7-5.5-1.3-5.5-1.2-9.8-1.5-5-.8-5-.5-8.2-.2-8.5-.3-1.8.3-8.5.5-8.5.7-8.7 1.5-9 2-5 1.5-5.3 1.5-5 1.8-5.2 2-5 2.2-5 2.3-5 2.5-4.8 2.7-5 3-4.5 3-4.5 3.5-4.5 3.5-4.2 3.8-4 4-4 4.2-3.8 4.5"/><path class="st7" d="M763.5 237.3l-4-2.8-4.8-2.7-6.5-3.8-8.2-4.2-9.5-4.5-5.5-2.3-5.8-2.2-6-2.3-6.2-2-6.8-2.2-7-1.8-7.2-1.7-7.5-1.5-7.8-1.3-8-1.2-8.2-.8-8.5-.5h-8.8l-8.7.3-9 .5-9.3 1.2-9.2 1.5-9.5 2-9.8 2.5-9.7 3.3-8 2.7-7.5 3.3-7.3 3.2-6.7 3.3-6.5 3.2-6 3.3-5.3 3.2-5 3-8.5 5.8-6 4.5-5.2 4"/><path class="st8" d="M717.2 294.3l-2 4.7-2.2 5-2.8 6-4 7.8-2.2 3.7-2.5 3.5-2.3 3-2.5 2.5-2.2 2-1.3.5-1 .5H691M698.2 285l-2 4.8-2 5-3 6-4 7.5-2 3.5-2.2 3.2-2.3 3.3-2.2 2.5-2.3 2-1 .5-1 .7-1 .3h-1M674.7 276.3l-1.5 5-1.7 5-2.3 6.2-3 7.3-1.5 3.5-1.7 3.2-1.8 3-2 2.8-1.7 2.2-2 1.8-1.5 1-1.8.5M651.2 267.3l-.7 6-1 6.5-1.5 7.5-1.8 7.5-1.2 3.7-1 3.3-1.5 3-1.3 2.7-1.5 2-1.7 1.5-.8.5-1 .5M628 271.5v4l.2 4v5l-.5 7.3-.5 3.7-.7 3.3-.8 3-1.2 2.5-.5 1-.8 1-.7.7-1 .5M611.5 271v3.8l.2 4.2-.2 5-.5 7.3-.3 3.5-.7 3.5-.8 3-1.2 2.5-.5 1-.8.7-.7.8-1 .5M591.2 271.3l.5 4.2.5 4.8.5 5.2.3 7-.3 3.5-.2 3.3-.8 2.7-.7 2.5-.5 1-.5.8-.8.7-.7.5M573.5 272.8l.7 5 .5 5.2.3 6 .2 6.5-.2 3-.5 3-.5 2.5-.8 2-1.2 1.8-.5.7-.8.3M687.5 377.8l2 .7 1.7.8 2.5 1.2 2.5 1.5 2.3 2 2.2 2 .8 1.3.7 1.2M676.2 386.5l.5.5 2.3 1.8 1.5 1.7 1.7 1.8 1.5 2 1.5 2.2 1 2.3.5 2.5M662.7 394.8l.5.5 1.8 2.5 1.2 2 1 2 1 2.5.8 2.5.5 2.5-.3 2.2"/><path class="st7" d="M239.5 451.5V646M296.2 583.5l-56.5 64-56.2-64.2M608.5 451.3v194.5M665 583.3l-56.5 64-56.3-64.3"/></svg><text x="170" y="355" fill="#244a43" font-family="Arial,sans-serif" font-size="15" font-weight="600" text-anchor="middle">My draft</text><text x="407" y="103" fill="#244a43" font-family="Arial,sans-serif" font-size="15" font-weight="600" text-anchor="middle">Take a look</text><text x="538" y="151" fill="#244a43" font-family="Arial,sans-serif" font-size="15" font-weight="600" text-anchor="middle">Any feedback?</text></svg>