<svg xmlns="http://www.w3.org/2000/svg" viewBox="0 0 640 400" width="640" height="400" role="img"><title>A globe, many calendar years, and temperatures show weather patterns over a long time.</title><rect width="640" height="400" rx="22" fill="#fbf8f1"/><svg x="43" y="49" width="174.66666666666666" height="264" viewBox="116.92917500000001 37.2047375 608.56320625 774.6557843749999" preserveAspectRatio="xMidYMid meet"><path d="M551.8 758.4v30.52H336.18V758.4s46.96 0 60.21-32.86c7.08-17.55 10.19-47.271 11.55-71.14a299.926 299.926 0 0 0 72.1.02c1.37 23.87 4.479 53.57 11.56 71.12 13.25 32.86 60.2 32.86 60.2 32.86z" fill="orange"/><path d="M480.04 654.42a299.823 299.823 0 0 1-72.1-.02c-115.17-13.91-217.03-93.74-253.3-211.771-49.13-159.89 40.64-329.32 200.52-378.46l12.5 40.7-.89.27c-25.23 7.75-48.42 19-69.21 33.06-92.04 62.23-136.89 179.4-102.55 291.109C237.1 566.25 382.24 643.16 519.19 601.07c.3-.09.59-.181.89-.28l13.01 42.35a305.017 305.017 0 0 1-53.05 11.28z" fill="orange"/><path d="M636.83 372.7c39.92-9.42 7.75 67.13-4.66 86.37-13.12 20.37-45.92 16.13-63.77 2.479-21.511-16.47 7.649-27.18 20.81-52.03 13.99-26.399 31.81-33.089 47.62-36.819z" fill="#33a02c"/><path d="M453 315.13c19.44 19.26 39.07 44.84 27.36 71.06-9.681 21.69-22.801 33.56-22.24 59.76.54 25.49 28.689 66.81 7.35 89.59-19.399 20.72-44.36-7.26-54.42-23.521-15-24.22-21.03-48.369-51.94-55.88-26.04-6.319-42.51 5.011-67.34-11.939-15.06-10.28-41.88-36.43-39.15-58.4 7.85-63.17 64.94-34.47 86.12-49.89 33.92-24.7 81.68-53.04 114.26-20.78z" fill="#abda4d"/><path d="M580.72 183.55c3.69 31.72-27.34 35-50.689 32.27-37.65-4.39-36.4 14.49-62.42 31.77-20.841 13.85-37.521-.01-54.39-12.16-27.69-19.94-37.51-11.91-67.57-7.05-6.32 1.03-22.18 2.91-27-2.39-4.27-4.71.66-10.96-1.31-16.64-7.23-20.84-19.34-7.49-31.95-19.6-10.39-9.98 5.02-42.48 12.19-51.52l-.02-.03c20.79-14.06 43.98-25.31 69.21-33.06l.89-.27c69.55-21.11 141.16-11.58 200.25 20.89l-1.62 5.25c-10.351 16.9 12.469 35.66 14.429 52.54z" fill="#fff"/><path d="M690.94 276.9c42 136.64-34.48 281.46-170.86 323.89-.3.1-.59.19-.89.28-136.95 42.09-282.09-34.82-324.18-171.76-34.34-111.71 10.51-228.88 102.55-291.11l.02.03c-7.17 9.04-22.58 41.54-12.19 51.52 12.61 12.11 24.72-1.24 31.95 19.6 1.97 5.68-2.96 11.93 1.31 16.64 4.82 5.3 20.68 3.42 27 2.39 30.06-4.86 39.88-12.89 67.57 7.05 16.87 12.15 33.549 26.01 54.39 12.16 26.02-17.28 24.77-36.16 62.42-31.77 23.35 2.73 54.38-.55 50.689-32.27-1.96-16.88-24.779-35.64-14.43-52.54l1.62-5.25C624.94 157.1 670.31 209.79 690.94 276.9zm-58.77 182.17c12.41-19.24 44.58-95.791 4.66-86.37-15.811 3.73-33.63 10.42-47.62 36.82-13.16 24.85-42.32 35.56-20.81 52.03 17.85 13.65 50.65 17.89 63.77-2.48zm-151.81-72.88c11.71-26.22-7.92-51.8-27.36-71.06-32.58-32.26-80.34-3.92-114.26 20.78-21.18 15.42-78.27-13.28-86.12 49.89-2.73 21.97 24.09 48.12 39.15 58.4 24.83 16.95 41.3 5.62 67.34 11.939 30.91 7.511 36.94 31.66 51.94 55.88 10.06 16.261 35.021 44.24 54.42 23.521 21.34-22.78-6.81-64.1-7.35-89.59-.56-26.2 12.56-38.07 22.24-59.76z" fill="#a3d9ff"/><g fill="none" stroke="#231f20" stroke-width="21"><path d="M567.91 125.76c57.03 31.34 102.399 84.03 123.03 151.14 42 136.64-34.48 281.46-170.86 323.89-.3.1-.59.19-.89.28-136.95 42.09-282.09-34.82-324.18-171.76-34.34-111.71 10.51-228.88 102.55-291.11 20.79-14.06 43.98-25.31 69.21-33.06l.89-.27c69.55-21.11 141.16-11.58 200.25 20.89z"/><path d="M367.66 104.87l-12.5-40.7c-159.88 49.14-249.65 218.57-200.52 378.46 36.27 118.03 138.13 197.86 253.3 211.771a299.926 299.926 0 0 0 72.1.02c17.69-2.14 35.42-5.86 53.05-11.28l-13.01-42.35"/><path d="M478.98 617.19s-.141 16.39 1.06 37.229c1.37 23.87 4.479 53.57 11.56 71.12 13.25 32.86 60.2 32.86 60.2 32.86v30.52H336.18V758.4s46.96 0 60.21-32.86c7.08-17.55 10.19-47.271 11.55-71.14 1.2-20.83 1.06-37.21 1.06-37.21M297.58 138.23c-7.17 9.04-22.58 41.54-12.19 51.52 12.61 12.11 24.72-1.24 31.95 19.6 1.97 5.68-2.96 11.93 1.31 16.64 4.82 5.3 20.68 3.42 27 2.39 30.06-4.86 39.88-12.89 67.57 7.05 16.87 12.15 33.549 26.01 54.39 12.16 26.02-17.28 24.77-36.16 62.42-31.77 23.35 2.73 54.38-.55 50.689-32.27-1.96-16.88-24.779-35.64-14.43-52.54M252.62 385.8c-2.73 21.97 24.09 48.12 39.15 58.4 24.83 16.95 41.3 5.62 67.34 11.939 30.91 7.511 36.94 31.66 51.94 55.88 10.06 16.261 35.021 44.24 54.42 23.521 21.34-22.78-6.81-64.1-7.35-89.59-.561-26.2 12.56-38.07 22.24-59.76 11.71-26.22-7.92-51.8-27.36-71.06-32.58-32.26-80.34-3.92-114.26 20.78-21.18 15.42-78.27-13.28-86.12 49.89zM589.21 409.52c-13.16 24.85-42.32 35.56-20.81 52.03 17.85 13.65 50.649 17.891 63.77-2.479 12.41-19.24 44.58-95.791 4.66-86.37-15.81 3.729-33.63 10.419-47.62 36.819z"/></g><path fill="none" d="M0 0h850.394v850.394H0z"/></svg><text x="133.33333333333331" y="346" fill="#294740" font-family="Arial,sans-serif" font-size="15" font-weight="600" text-anchor="middle">Many years</text><svg x="229.66666666666666" y="49" width="174.66666666666666" height="264" viewBox="130.21658125 54.478365625 589.9608375 741.43726875" preserveAspectRatio="xMidYMid meet"><path fill="#ff001c" d="M696.88 111.76v119.33h-.22v-.44H154.9V111.76z"/><path fill="#fff" d="M561.22 636.97h135.44v135.44H561.22zM561.22 501.53h135.44v135.439H561.22zM561.22 366.09h135.44v135.44H561.22z"/><path fill="#fff" d="M561.22 231.09h135.44v135H561.22zM425.78 636.97h135.44v135.44H425.78zM425.78 501.53h135.44v135.439H425.78zM425.78 366.09h135.44v135.44H425.78z"/><path fill="#fff" d="M425.78 231.09h135.44v135H425.78zM290.34 636.97h135.44v135.44H290.34zM290.34 501.53h135.44v135.439H290.34zM290.34 366.09h135.44v135.44H290.34z"/><path fill="#fff" d="M290.34 231.09h135.44v135H290.34zM154.9 636.97h135.44v135.44H154.9zM154.9 501.53h135.44v135.439H154.9z"/><path fill="#fff" d="M154.9 366.09h135.44v135.44H154.9z"/><path fill="#fff" d="M154.9 231.09h135.44v135H154.9z"/><g fill="none" stroke="#231f20"><path stroke-width="21" d="M154.9 230.65h541.76v541.76H154.9V231.09M154.9 636.97h541.76M154.9 501.53h541.76M154.9 366.09h541.76M561.22 230.65v541.76M425.78 230.65v541.76M290.34 230.65v541.76"/><path stroke-width="21" d="M154.9 230.65V111.76h541.98v119.33H154.9z"/><path stroke-width="27.872" stroke-linecap="round" stroke-linejoin="round" d="M176.79 82.73v21.22M225.56 82.73v21.22M275.5 82.82v21.21M324.27 82.98v21.21M374.21 83.31v21.21M425.78 83.46v21.21M474.56 83.46v21.21M524.49 83.54v21.21M573.26 83.71v21.21M623.2 84.04v21.21M675.32 82.83v21.21"/></g><path fill="none" d="M0 0h850.394v850.394H0z"/></svg><svg x="416.3333333333333" y="49" width="174.66666666666666" height="264" viewBox="289.66545625 29.232293750000004 267.076865625 785.285709375" preserveAspectRatio="xMidYMid meet"><path d="M487.92 592.11c28.08 19.93 46.41 52.699 46.41 89.76 0 60.76-49.26 110.01-110.02 110.01-60.75 0-110.01-49.25-110.01-110.01 0-37.29 18.55-70.25 46.92-90.15L360 590l1.15-473.45c4.89-50.53 37.79-61.84 61.78-63.21l3.65.08c23.99 1.38 56.9 12.68 61.79 63.21L488 592l-.08.11zm-20.1-27.88c0-6.37-1.101-10.931-3.28-13.681-1.83-2.319-4.38-3.49-7.63-3.49s-5.79 1.15-7.61 3.44c-2.2 2.78-3.3 7.34-3.3 13.66 0 6.45 1 10.93 3 13.45 2 2.51 4.64 3.77 7.91 3.77 3.25 0 5.79-1.149 7.609-3.439 2.201-2.78 3.301-7.35 3.301-13.71z" fill="#ffffc2"/><path d="M460.47 556.11c.4 1.47.601 4.18.601 8.12 0 3.939-.23 6.739-.67 8.39-.33 1.28-.801 2.17-1.41 2.67-.61.5-1.3.74-2.08.74s-1.47-.24-2.07-.73c-.6-.49-1.1-1.47-1.49-2.939-.399-1.48-.6-4.19-.6-8.13 0-3.94.22-6.74.67-8.41.33-1.28.8-2.17 1.41-2.67.61-.49 1.3-.74 2.08-.74s1.46.25 2.07.74c.599.499 1.099 1.479 1.489 2.959z" fill="#ffffc2"/><path d="M456.91 576.03c.78 0 1.47-.24 2.08-.74.609-.5 1.08-1.39 1.41-2.67.439-1.65.67-4.45.67-8.39 0-3.94-.2-6.65-.601-8.12-.39-1.48-.89-2.46-1.489-2.96-.61-.49-1.29-.74-2.07-.74s-1.47.25-2.08.74c-.61.5-1.08 1.39-1.41 2.67-.45 1.67-.67 4.47-.67 8.41 0 3.939.2 6.649.6 8.13.391 1.47.891 2.449 1.49 2.939.6.491 1.29.731 2.07.731zm7.61 1.91c-1.819 2.29-4.359 3.439-7.609 3.439-3.271 0-5.91-1.26-7.91-3.77-2-2.521-3-7-3-13.45 0-6.32 1.1-10.88 3.3-13.66 1.82-2.29 4.36-3.44 7.61-3.44s5.8 1.171 7.63 3.49c2.18 2.75 3.28 7.311 3.28 13.681-.001 6.36-1.101 10.93-3.301 13.71z" fill="#231f20"/><g fill="none" stroke="#231f20"><path d="M483.09 588.86c1.641 1.04 3.25 2.12 4.83 3.25 28.08 19.93 46.41 52.699 46.41 89.76 0 60.76-49.26 110.01-110.02 110.01-60.75 0-110.01-49.25-110.01-110.01 0-37.29 18.55-70.25 46.92-90.15 1.9-1.33 3.84-2.6 5.82-3.81" stroke-width="21"/><path d="M360 590l1.15-473.45c4.89-50.53 37.79-61.84 61.78-63.21l3.65.08c23.99 1.38 56.9 12.68 61.79 63.21L488 592" stroke-width="21"/><path stroke-width="14" d="M381.77 323.95h54.77M399.05 293.97h37.16M399.05 261.69h37.16M399.38 234.96h37.16M381.12 205.95h54.76M398.4 175.96h37.16M398.4 143.69h37.16M398.72 116.96h37.16M381.78 442.61h54.76M399.06 412.62h37.16M399.06 380.35h37.16M399.38 353.62h37.16M381.12 561.26h54.77M398.4 531.28h37.16M398.4 499.01h37.16M398.73 472.27h37.16"/></g><path fill="none" d="M0 0h850.394v850.394H0z"/></svg></svg>